<svg xmlns="http://www.w3.org/2000/svg" xmlns:xlink="http://www.w3.org/1999/xlink" xmlns:lucid="lucid" width="1481.33" height="1236.33"><g transform="translate(-160 -33.166666666666515)" lucid:page-tab-id="RSOGmtBgfuB5"><path d="M875.17 892.57a8.12 8.12 0 0 1 9.66 0l85.34 63.03a4.43 4.43 0 0 1 0 7.13l-85.34 63.04a8.12 8.12 0 0 1-9.66 0l-85.34-63.04a4.43 4.43 0 0 1 0-7.13zM875.84 1061.4a8.12 8.12 0 0 1 9.65 0l85.34 63.03a4.43 4.43 0 0 1 0 7.13l-85.35 63.04a8.12 8.12 0 0 1-9.66 0l-85.35-63.03a4.43 4.43 0 0 1 0-7.13zM475.17 294.06a8.12 8.12 0 0 1 9.66 0l85.34 63.04a4.43 4.43 0 0 1 0 7.13l-85.34 63.04a8.12 8.12 0 0 1-9.66 0l-85.34-63.04a4.43 4.43 0 0 1 0-7.13zM390 467.17a6 6 0 0 1 6-6h168a6 6 0 0 1 6 6v66.66a6 6 0 0 1-6 6H396a6 6 0 0 1-6-6zM390.67 1094.83a6 6 0 0 1 6-6h168a6 6 0 0 1 6 6v66.67a6 6 0 0 1-6 6h-168a6 6 0 0 1-6-6zM1220 216.5a6 6 0 0 1 6-6h148a6 6 0 0 1 6 6v48a6 6 0 0 1-6 6h-148a6 6 0 0 1-6-6z" stroke="#3a414a" fill="#fff"/><use xlink:href="#a" transform="matrix(1,0,0,1,1232,222.4999999999999) translate(18.679012345679013 22.27777777777778)"/><path d="M1340 153.17c0 11.04-17.9 20-40 20s-40-8.96-40-20c0-11.05 17.9-20 40-20s40 8.95 40 20z" stroke="#3a414a" fill="#fff"/><use xlink:href="#b" transform="matrix(1,0,0,1,1265,138.16666666666652) translate(26.39388888888889 19.65277777777778)"/><path d="M1300 174.17v35.33" stroke="#3a414a" fill="none"/><path d="M1300 173.67l.5-.02v.53h-1v-.54zM1300.5 210h-1v-.5h1z" stroke="#3a414a" stroke-width=".05" fill="#3a414a"/><path d="M1621.33 153.17c0 15.83-40.6 28.66-90.66 28.66-50.08 0-90.67-12.83-90.67-28.66s40.6-28.67 90.67-28.67 90.66 12.84 90.66 28.67z" stroke="#3a414a" fill="#fff"/><use xlink:href="#c" transform="matrix(1,0,0,1,1445,129.49999999999983) translate(33.745740740740736 29.77777777777778)"/><path d="M1621.33 240.5c0 15.83-40.6 28.67-90.66 28.67-50.08 0-90.67-12.84-90.67-28.67 0-15.83 40.6-28.67 90.67-28.67s90.66 12.84 90.66 28.67z" stroke="#3a414a" fill="#fff"/><use xlink:href="#d" transform="matrix(1,0,0,1,1445,216.83333340828153) translate(34.33216049382716 29.77777777777778)"/><path d="M1621.33 333.17c0 15.83-40.6 28.66-90.66 28.66-50.08 0-90.67-12.83-90.67-28.66 0-15.84 40.6-28.67 90.67-28.67s90.66 12.83 90.66 28.67z" stroke="#3a414a" fill="#fff"/><use xlink:href="#e" transform="matrix(1,0,0,1,1445,309.49999999999983) translate(59.05438271604938 29.77777777777778)"/><path d="M1390.67 333.17c0 15.83-40.6 28.66-90.67 28.66s-90.67-12.83-90.67-28.66c0-15.84 40.6-28.67 90.67-28.67s90.67 12.83 90.67 28.67z" stroke="#3a414a" fill="#fff"/><use xlink:href="#f" transform="matrix(1,0,0,1,1214.3333334554522,309.49999999999983) translate(67.04820987654321 29.77777777777778)"/><path d="M1300 303.5v-32" stroke="#3a414a" fill="none"/><path d="M1300.5 304h-1v-.5h1zM1300.5 271.5h-1v-.5h1z" stroke="#3a414a" stroke-width=".05" fill="#3a414a"/><path d="M1530.67 303.5v-10a6 6 0 0 0-6-6H1306a6 6 0 0 1-6-6v-10" stroke="#3a414a" fill="none"/><path d="M1531.17 304h-1v-.5h1zM1300.5 271.5h-1v-.5h1z" stroke="#3a414a" stroke-width=".05" fill="#3a414a"/><path d="M1439 240.5h-58" stroke="#3a414a" fill="none"/><path d="M1439.5 240.5v.26l.02.24h-.53v-1h.5zM1381 241h-.5v-1h.5z" stroke="#3a414a" stroke-width=".05" fill="#3a414a"/><path d="M1530.67 182.83v7.34a6 6 0 0 1-6 6H1306a6 6 0 0 0-6 6v7.33" stroke="#3a414a" fill="none"/><path d="M1530.66 182.33h.5v.52h-1v-.53zM1300.5 210h-1v-.5h1z" stroke="#3a414a" stroke-width=".05" fill="#3a414a"/><path d="M400 219.17a6 6 0 0 1 6-6h148a6 6 0 0 1 6 6v48a6 6 0 0 1-6 6H406a6 6 0 0 1-6-6z" stroke="#3a414a" fill="#fff"/><use xlink:href="#g" transform="matrix(1,0,0,1,412,225.16666666666652) translate(35.37654320987655 22.27777777777778)"/><path d="M560 136.17c0 14.17-35.82 25.66-80 25.66s-80-11.5-80-25.66c0-14.18 35.82-25.67 80-25.67s80 11.5 80 25.67z" stroke="#3a414a" fill="#fff"/><use xlink:href="#h" transform="matrix(1,0,0,1,405,115.49999999999989) translate(24.41858024691357 25.65277777777778)"/><path d="M340 241.83c0 14.18-35.82 25.67-80 25.67s-80-11.5-80-25.67c0-14.17 35.82-25.66 80-25.66s80 11.5 80 25.66z" stroke="#3a414a" fill="#fff"/><use xlink:href="#i" transform="matrix(1,0,0,1,185,221.16666666666652) translate(47.258086419753084 25.65277777777778)"/><path d="M480 162.83v49.34" stroke="#3a414a" fill="none"/><path d="M480 162.33h.5v.52h-1v-.53zM480.5 212.67h-1v-.52h1z" stroke="#3a414a" stroke-width=".05" fill="#3a414a"/><path d="M341 241.83h58" stroke="#3a414a" fill="none"/><path d="M341 242.33h-.5v-.58l-.02-.42h.53zM399.5 242.33h-.5v-1h.5z" stroke="#3a414a" stroke-width=".05" fill="#3a414a"/><path d="M875.2 185.43a8 8 0 0 1 9.6 0l70.4 52.8a4.5 4.5 0 0 1 0 7.2l-70.4 52.8a8 8 0 0 1-9.6 0l-70.4-52.8a4.5 4.5 0 0 1 0-7.2z" stroke="#3a414a" fill="#fff"/><use xlink:href="#j" transform="matrix(1,0,0,1,805,186.8333333333332) translate(29.974135802469128 59.02777777777778)"/><path d="M1082.1 240.83H958.5v-2h123.6zm136.4-1.33h-123.6v-2h123.6zM1082.1 244.83H958.5v-2h123.6zm136.4-1.33h-123.6v-2h123.6z" stroke="#3a414a" stroke-width=".05" fill="#3a414a"/><path d="M958.53 240.83h-1.14l-.24-.8-.4-.84-.28-.37h2.05z" fill="#3a414a"/><path d="M958.55 240.86h-1.17l-.24-.83-.4-.82-.32-.4h2.13zm-2.02-2l.24.32.4.83.24.8h1.1v-1.94z" stroke="#3a414a" stroke-width=".05" fill="#3a414a"/><path d="M958.53 244.83h-2.05l.27-.36.4-.82.24-.82h1.13z" fill="#3a414a"/><path d="M958.55 244.86h-2.13l.3-.4.42-.82.24-.83h1.17zm-1.14-2l-.22.8-.4.83-.25.3h1.97v-1.94z" stroke="#3a414a" stroke-width=".05" fill="#3a414a"/><path d="M1219.5 239.5h-1.03v-2h1.03z" fill="#3a414a"/><path d="M1219.53 239.53h-1.08v-2.06h1.08zm-1.03-2v1.94h.97v-1.94z" stroke="#3a414a" stroke-width=".05" fill="#3a414a"/><path d="M1219.5 243.5h-1.03v-2h1.03z" fill="#3a414a"/><path d="M1219.53 243.53h-1.08v-2.06h1.08zm-1.03-2v1.94h.97v-1.94z" stroke="#3a414a" stroke-width=".05" fill="#3a414a"/><use xlink:href="#k" transform="matrix(1,0,0,1,1082.1060207611079,230.5) translate(0 14.222222222222223)"/><path d="M676.56 243.67H561v-1h115.56zM802 242.33H686.44v-1H802z" stroke="#3a414a" stroke-width=".05" fill="#3a414a"/><path d="M802.5 241.83l.04.5H802v-1h.54z" fill="#3a414a"/><path d="M802.52 241.83l.05.53h-.6v-1.05h.6zm-.5-.47v.95h.5l-.05-.47.05-.47z" stroke="#3a414a" stroke-width=".05" fill="#3a414a"/><path d="M561 243.67h-.5v-1h.5z" fill="#3a414a"/><path d="M561.04 243.7h-.56v-1.06h.56zm-.5-1v.94h.45v-.95z" stroke="#3a414a" stroke-width=".05" fill="#3a414a"/><use xlink:href="#l" transform="matrix(1,0,0,1,676.5606459055589,231.8333333333332) translate(0 14.222222222222223)"/><path d="M1220 636.5a6 6 0 0 1 6-6h148a6 6 0 0 1 6 6v48a6 6 0 0 1-6 6h-148a6 6 0 0 1-6-6z" stroke="#3a414a" fill="#fff"/><use xlink:href="#m" transform="matrix(1,0,0,1,1232,642.4999999999999) translate(40.9320987654321 22.27777777777778)"/><path d="M1390.67 559.17c0 15.83-40.6 28.66-90.67 28.66s-90.67-12.83-90.67-28.66 40.6-28.67 90.67-28.67 90.67 12.84 90.67 28.67z" stroke="#3a414a" fill="#fff"/><use xlink:href="#n" transform="matrix(1,0,0,1,1214.3333333333335,535.4999999999999) translate(47.9124074074074 29.77777777777778)"/><path d="M1601.33 570.5c0 15.83-40.6 28.67-90.66 28.67-50.08 0-90.67-12.84-90.67-28.67 0-15.83 40.6-28.67 90.67-28.67s90.66 12.84 90.66 28.67z" stroke="#3a414a" fill="#fff"/><use xlink:href="#o" transform="matrix(1,0,0,1,1425,546.8333333333329) translate(10.937098765432106 29.77777777777778)"/><path d="M1601.33 661.83c0 15.83-40.6 28.67-90.66 28.67-50.08 0-90.67-12.84-90.67-28.67 0-15.83 40.6-28.66 90.67-28.66s90.66 12.83 90.66 28.66z" stroke="#3a414a" fill="#fff"/><use xlink:href="#p" transform="matrix(1,0,0,1,1425,638.1666666666665) translate(28.282777777777774 29.77777777777778)"/><path d="M1601.33 759.17c0 15.83-40.6 28.66-90.66 28.66-50.08 0-90.67-12.83-90.67-28.66s40.6-28.67 90.67-28.67 90.66 12.84 90.66 28.67z" stroke="#3a414a" fill="#fff"/><use xlink:href="#q" transform="matrix(1,0,0,1,1425,735.5) translate(58.99265432098766 29.77777777777778)"/><path d="M1390.67 759.17c0 15.83-40.6 28.66-90.67 28.66s-90.67-12.83-90.67-28.66 40.6-28.67 90.67-28.67 90.67 12.84 90.67 28.67z" stroke="#3a414a" fill="#fff"/><use xlink:href="#r" transform="matrix(1,0,0,1,1214.3333333333335,735.5) translate(38.65314814814814 29.77777777777778)"/><path d="M1300 588.83v40.67" stroke="#3a414a" fill="none"/><path d="M1300 588.33h.5v.52h-1v-.53zM1300.5 630h-1v-.5h1z" stroke="#3a414a" stroke-width=".05" fill="#3a414a"/><path d="M1510.67 600.17v8.66a6 6 0 0 1-6 6H1306a6 6 0 0 0-6 6v8.67" stroke="#3a414a" fill="none"/><path d="M1510.66 599.67h.5v.5h-1v-.52zM1300.5 630h-1v-.5h1z" stroke="#3a414a" stroke-width=".05" fill="#3a414a"/><path d="M1419 661.83h-38" stroke="#3a414a" fill="none"/><path d="M1419.5 661.83v.27l.02.23h-.53v-1h.5zM1381 662.33h-.5v-1h.5z" stroke="#3a414a" stroke-width=".05" fill="#3a414a"/><path d="M1510.67 729.5v-13a6 6 0 0 0-6-6H1306a6 6 0 0 1-6-6v-13" stroke="#3a414a" fill="none"/><path d="M1511.17 730h-1v-.5h1zM1300.5 691.5h-1v-.5h1z" stroke="#3a414a" stroke-width=".05" fill="#3a414a"/><path d="M1300 729.5v-38" stroke="#3a414a" fill="none"/><path d="M1300.5 730h-1v-.5h1zM1300.5 691.5h-1v-.5h1z" stroke="#3a414a" stroke-width=".05" fill="#3a414a"/><path d="M875.2 455.43a8 8 0 0 1 9.6 0l70.4 52.8a4.5 4.5 0 0 1 0 7.2l-70.4 52.8a8 8 0 0 1-9.6 0l-70.4-52.8a4.5 4.5 0 0 1 0-7.2z" stroke="#3a414a" fill="#fff"/><use xlink:href="#s" transform="matrix(1,0,0,1,805,456.83333333333314) translate(9.660493827160494 59.44444444444444)"/><path d="M1143 654.46l.04.5.1.47.2.43.24.4.3.36.36.3.4.25.43.18.46.1.5.05h72.47v2h-72.54l-.74-.06-.77-.18-.72-.3-.67-.4-.6-.52-.5-.6-.42-.67-.3-.72-.18-.77-.06-.74v-109.2h2zm-7.6-145.52l1.38.33 1.3.54 1.2.75 1.1.92.9 1.07.74 1.2.54 1.3.33 1.38.1 1.37v6.2h-2v-6.13l-.1-1.13-.25-1.07-.42-1-.57-.95-.7-.83-.85-.73-.92-.57-1.02-.42-1.07-.26-1.14-.1H958.5v-2h175.54z" stroke="#3a414a" stroke-width=".05" fill="#3a414a"/><path d="M1139 654.46l.1 1.13.25 1.06.42 1.02.57.93.7.85.85.7.92.58 1.02.42 1.07.26 1.14.1h72.46v2h-72.54l-1.37-.1-1.38-.34-1.3-.54-1.2-.74-1.1-.9-.9-1.1-.74-1.2-.54-1.3-.33-1.37-.1-1.36v-109.2h2zm-4.22-141.57l.77.18.72.3.67.4.6.52.5.6.42.66.3.73.18.75.06.74v6.2h-2v-6.13l-.04-.5-.1-.46-.2-.43-.24-.4-.3-.36-.36-.3-.4-.24-.43-.18-.46-.1-.5-.05H958.5v-2h175.54z" stroke="#3a414a" stroke-width=".05" fill="#3a414a"/><path d="M958.53 510.83h-1.14l-.24-.8-.4-.84-.28-.37h2.05z" fill="#3a414a"/><path d="M958.55 510.86h-1.17l-.24-.83-.4-.82-.32-.4h2.13zm-2.02-2l.24.32.4.83.24.8h1.1v-1.94z" stroke="#3a414a" stroke-width=".05" fill="#3a414a"/><path d="M958.53 514.83h-2.05l.27-.36.4-.82.24-.82h1.13z" fill="#3a414a"/><path d="M958.55 514.86h-2.13l.3-.4.42-.82.24-.83h1.17zm-1.14-2l-.22.8-.4.83-.25.3h1.97v-1.94z" stroke="#3a414a" stroke-width=".05" fill="#3a414a"/><path d="M1219.5 659.5h-1.03v-2h1.03z" fill="#3a414a"/><path d="M1219.53 659.52h-1.08v-2.04h1.08zm-1.03-2v1.96h.97v-1.96z" stroke="#3a414a" stroke-width=".05" fill="#3a414a"/><path d="M1219.5 663.5h-1.03v-2h1.03z" fill="#3a414a"/><path d="M1219.53 663.52h-1.08v-2.04h1.08zm-1.03-2v1.96h.97v-1.96z" stroke="#3a414a" stroke-width=".05" fill="#3a414a"/><use xlink:href="#k" transform="matrix(1,0,0,1,1133.6049382716049,524.0010824895028) translate(0 14.222222222222223)"/><path d="M710.5 505.8l.07.9.2.83.33.8.45.74.56.65.67.56.73.45.8.33.84.2.88.07H802v1h-86.02l-1-.08-1-.23-.93-.4-.87-.53-.78-.67-.66-.78-.53-.86-.38-.96-.24-1-.08-1V359.68h1zm-5.48-263.06l1 .24.93.4.87.53.78.67.66.78.53.87.38.94.24 1 .08 1v89.17h-1V249.2l-.07-.9-.2-.83-.33-.8-.45-.73-.56-.66-.67-.56-.73-.45-.8-.33-.84-.2-.88-.07h-17.54v-1h17.58zm-144.02.93v-1h115.56v1z" stroke="#3a414a" stroke-width=".05" fill="#3a414a"/><path d="M802.5 511.83l.04.5H802v-1h.54z" fill="#3a414a"/><path d="M802.52 511.83l.05.53h-.6v-1.05h.6zm-.5-.47v.95h.5l-.05-.47.05-.47z" stroke="#3a414a" stroke-width=".05" fill="#3a414a"/><path d="M561 243.67h-.5v-1h.5z" fill="#3a414a"/><path d="M561.04 243.7h-.56v-1.06h.56zm-.5-1v.94h.45v-.95z" stroke="#3a414a" stroke-width=".05" fill="#3a414a"/><use xlink:href="#l" transform="matrix(1,0,0,1,705.0617283950618,338.33225084383025) translate(0 14.222222222222223)"/><path d="M875.2 604.1a8 8 0 0 1 9.6 0l70.4 52.8a4.5 4.5 0 0 1 0 7.2l-70.4 52.8a8 8 0 0 1-9.6 0l-70.4-52.8a4.5 4.5 0 0 1 0-7.2z" stroke="#3a414a" fill="#fff"/><use xlink:href="#t" transform="matrix(1,0,0,1,805,605.4999999999999) translate(26.332160493827153 59.02777777777778)"/><path d="M1082.1 659.5H958.5v-2h123.6zm136.4 0h-123.6v-2h123.6zM1082.1 663.5H958.5v-2h123.6zm136.4 0h-123.6v-2h123.6z" stroke="#3a414a" stroke-width=".05" fill="#3a414a"/><path d="M958.53 659.5h-1.14l-.24-.8-.4-.84-.28-.36h2.05z" fill="#3a414a"/><path d="M958.55 659.52h-1.17l-.24-.82-.4-.83-.32-.4h2.13zm-2.02-2l.24.33.4.83.24.8h1.1v-1.96z" stroke="#3a414a" stroke-width=".05" fill="#3a414a"/><path d="M958.53 663.5h-2.05l.27-.36.4-.83.24-.8h1.13z" fill="#3a414a"/><path d="M958.55 663.52h-2.13l.3-.4.42-.82.24-.82h1.17zm-1.14-2l-.22.8-.4.83-.25.33h1.97v-1.96z" stroke="#3a414a" stroke-width=".05" fill="#3a414a"/><path d="M1219.5 659.5h-1.03v-2h1.03z" fill="#3a414a"/><path d="M1219.53 659.52h-1.08v-2.04h1.08zm-1.03-2v1.96h.97v-1.96z" stroke="#3a414a" stroke-width=".05" fill="#3a414a"/><path d="M1219.5 663.5h-1.03v-2h1.03z" fill="#3a414a"/><path d="M1219.53 663.52h-1.08v-2.04h1.08zm-1.03-2v1.96h.97v-1.96z" stroke="#3a414a" stroke-width=".05" fill="#3a414a"/><use xlink:href="#k" transform="matrix(1,0,0,1,1082.1060207611079,649.8333333333333) translate(0 14.222222222222223)"/><path d="M660.5 654.48l.07.88.2.84.33.8.45.73.56.66.67.55.73.45.8.33.84.2.88.07H802v1H665.98l-1-.08-1-.24-.93-.4-.87-.52-.78-.66-.66-.78-.53-.87-.38-.94-.24-.98-.08-1V484h1zm-5.48-411.74l1 .24.93.4.87.53.78.67.66.78.53.87.38.94.24 1 .08 1v213.5h-1V249.2l-.07-.9-.2-.83-.33-.8-.45-.73-.56-.66-.67-.56-.73-.45-.8-.33-.84-.2-.88-.07H561v-1h93.02z" stroke="#3a414a" stroke-width=".05" fill="#3a414a"/><path d="M802.5 660.5l.04.5H802v-1h.54z" fill="#3a414a"/><path d="M802.52 660.5l.05.52h-.6V660h.6zm-.5-.48v.96h.5l-.05-.48.05-.48z" stroke="#3a414a" stroke-width=".05" fill="#3a414a"/><path d="M561 243.67h-.5v-1h.5z" fill="#3a414a"/><path d="M561.04 243.7h-.56v-1.06h.56zm-.5-1v.94h.45v-.95z" stroke="#3a414a" stroke-width=".05" fill="#3a414a"/><use xlink:href="#l" transform="matrix(1,0,0,1,655.0617283950618,462.6655841771636) translate(0 14.222222222222223)"/><path d="M400 785.17a6 6 0 0 1 6-6h148a6 6 0 0 1 6 6v48a6 6 0 0 1-6 6H406a6 6 0 0 1-6-6z" stroke="#3a414a" fill="#fff"/><use xlink:href="#u" transform="matrix(1,0,0,1,412,791.1666666666666) translate(32.90740740740742 22.27777777777778)"/><path d="M560 724.83c0 14.18-35.82 25.67-80 25.67s-80-11.5-80-25.67c0-14.17 35.82-25.66 80-25.66s80 11.5 80 25.66z" stroke="#3a414a" fill="#fff"/><use xlink:href="#v" transform="matrix(1,0,0,1,405,704.1666666666665) translate(20.19018518518517 25.65277777777778)"/><path d="M340 813.5c0 14.17-35.82 25.67-80 25.67s-80-11.5-80-25.67c0-14.17 35.82-25.67 80-25.67s80 11.5 80 25.67z" stroke="#3a414a" fill="#fff"/><use xlink:href="#w" transform="matrix(1,0,0,1,185,792.8333333333333) translate(18.276604938271596 25.65277777777778)"/><path d="M610 910.83c0 14.18-58.2 25.67-130 25.67S350 925 350 910.83c0-14.17 58.2-25.66 130-25.66s130 11.5 130 25.66z" stroke="#3a414a" fill="#fff"/><use xlink:href="#x" transform="matrix(1,0,0,1,355,890.1666666666667) translate(26.30129629629631 25.65277777777778)"/><path d="M480 884.17v-44" stroke="#3a414a" fill="none"/><path d="M480.5 884.68h-1v-.53h1zM480.5 840.18h-1v-.5h1z" stroke="#3a414a" stroke-width=".05" fill="#3a414a"/><path d="M480 751.5v26.67" stroke="#3a414a" fill="none"/><path d="M480 751h.5v.5h-1v-.5zM480.5 778.67h-1v-.52h1z" stroke="#3a414a" stroke-width=".05" fill="#3a414a"/><path d="M341 813.5h58" stroke="#3a414a" fill="none"/><path d="M341 814h-.5v-.58l-.02-.42h.53zM399.5 814h-.5v-1h.5z" stroke="#3a414a" stroke-width=".05" fill="#3a414a"/><path d="M875.2 752.77a8 8 0 0 1 9.6 0l70.4 52.8a4.5 4.5 0 0 1 0 7.2l-70.4 52.8a8 8 0 0 1-9.6 0l-70.4-52.8a4.5 4.5 0 0 1 0-7.2z" stroke="#3a414a" fill="#fff"/><use xlink:href="#y" transform="matrix(1,0,0,1,805,754.1666666666666) translate(11.450617283950606 59.44444444444444)"/><path d="M1087.5 803.2l-.06.75-.18.76-.3.74-.4.67-.52.6-.6.5-.67.42-.72.3-.77.2-.74.05H958.5v-2h123.96l.5-.04.47-.1.43-.2.4-.24.36-.3.3-.37.25-.4.18-.44.1-.47.05-.5V745.5h2zm0-79.03h-2v-53h2zm131-64.67h-123.6v-2h123.6z" stroke="#3a414a" stroke-width=".05" fill="#3a414a"/><path d="M1091.5 803.2l-.1 1.38-.34 1.37-.54 1.3-.73 1.2-.93 1.08-1.08.92-1.2.74-1.32.53-1.37.33-1.36.1H958.5v-2h123.96l1.14-.08 1.06-.26 1.02-.42.93-.57.85-.72.7-.82.58-.94.43-1 .25-1.08.1-1.13V745.5h2zm0-79.03h-2v-53h2zm127-60.67h-123.6v-2h123.6z" stroke="#3a414a" stroke-width=".05" fill="#3a414a"/><path d="M958.53 808.17h-1.14l-.24-.82-.4-.83-.28-.35h2.05z" fill="#3a414a"/><path d="M958.55 808.2h-1.17l-.24-.84-.4-.82-.32-.4h2.13zm-2.02-2l.24.3.4.84.24.8h1.1v-1.95z" stroke="#3a414a" stroke-width=".05" fill="#3a414a"/><path d="M958.53 812.17h-2.05l.27-.36.4-.82.24-.8h1.13z" fill="#3a414a"/><path d="M958.55 812.2h-2.13l.3-.4.42-.83.24-.83h1.17zm-1.14-2l-.22.8-.4.82-.25.32h1.97v-1.95z" stroke="#3a414a" stroke-width=".05" fill="#3a414a"/><path d="M1219.5 659.5h-1.03v-2h1.03z" fill="#3a414a"/><path d="M1219.53 659.52h-1.08v-2.04h1.08zm-1.03-2v1.96h.97v-1.96z" stroke="#3a414a" stroke-width=".05" fill="#3a414a"/><path d="M1219.5 663.5h-1.03v-2h1.03z" fill="#3a414a"/><path d="M1219.53 663.52h-1.08v-2.04h1.08zm-1.03-2v1.96h.97v-1.96z" stroke="#3a414a" stroke-width=".05" fill="#3a414a"/><use xlink:href="#k" transform="matrix(1,0,0,1,1082.1060207611079,724.1666666666667) translate(0 14.222222222222223)"/><path d="M676.56 809.67H561v-1h115.56zm125.44 0H686.44v-1H802z" stroke="#3a414a" stroke-width=".05" fill="#3a414a"/><path d="M802.5 809.17l.04.5H802v-1h.54z" fill="#3a414a"/><path d="M802.52 809.17l.05.52h-.6v-1.06h.6zm-.5-.48v.94h.5l-.05-.47.05-.48z" stroke="#3a414a" stroke-width=".05" fill="#3a414a"/><path d="M561 809.67h-.5v-1h.5z" fill="#3a414a"/><path d="M561.04 809.7h-.56v-1.06h.56zm-.5-1v.94h.45v-.95z" stroke="#3a414a" stroke-width=".05" fill="#3a414a"/><use xlink:href="#l" transform="matrix(1,0,0,1,676.5606459055589,798.5) translate(0 14.222222222222223)"/><path d="M400.67 1104.17a6 6 0 0 1 6-6h148a6 6 0 0 1 6 6v48a6 6 0 0 1-6 6h-148a6 6 0 0 1-6-6z" stroke="#3a414a" fill="#fff"/><use xlink:href="#z" transform="matrix(1,0,0,1,412.66666666666686,1110.1666666666665) translate(27.907407407407405 22.27777777777778)"/><path d="M340.67 1128.17c0 14.17-35.82 25.66-80 25.66-44.2 0-80-11.5-80-25.66 0-14.18 35.8-25.67 80-25.67 44.18 0 80 11.5 80 25.67z" stroke="#3a414a" fill="#fff"/><use xlink:href="#A" transform="matrix(1,0,0,1,185.66666666666686,1107.500000081009) translate(54.07907407407408 25.65277777777778)"/><path d="M341.67 1128.17h48" stroke="#3a414a" fill="none"/><path d="M341.68 1128.67h-.53l.02-.5v-.08l-.02-.43h.53zM390.17 1128.67h-.52v-1h.52z" stroke="#3a414a" stroke-width=".05" fill="#3a414a"/><path d="M560.67 1223.83c0 14.18-35.82 25.67-80 25.67-44.2 0-80-11.5-80-25.67 0-14.17 35.8-25.66 80-25.66 44.18 0 80 11.5 80 25.66z" stroke="#3a414a" fill="#fff"/><use xlink:href="#r" transform="matrix(1,0,0,1,405.66666666666686,1203.1666666666663) translate(28.15314814814814 25.65277777777778)"/><path d="M480.67 1197.17v-28.67" stroke="#3a414a" fill="none"/><path d="M481.17 1197.68h-1v-.53h1zM481.17 1168.5h-1v-.5h1z" stroke="#3a414a" stroke-width=".05" fill="#3a414a"/><path d="M875.2 902.77a8 8 0 0 1 9.6 0l70.4 52.8a4.5 4.5 0 0 1 0 7.2l-70.4 52.8a8 8 0 0 1-9.6 0l-70.4-52.8a4.5 4.5 0 0 1 0-7.2z" stroke="#3a414a" fill="#fff"/><use xlink:href="#B" transform="matrix(1,0,0,1,805,904.1666666666664) translate(20.066728395061716 59.02777777777778)"/><path d="M663.67 1122.2l-.1 1.38-.34 1.37-.54 1.3-.75 1.2-.92 1.08-1.07.92-1.2.74-1.3.53-1.38.33-1.37.1h-82.53v-2h82.46l1.13-.08 1.07-.26 1-.42.95-.57.83-.72.73-.82.57-.94.42-1 .26-1.08.1-1.13v-86.48h2zm122.86-160.03H666.7l-.5.04-.46.12-.43.18-.4.24-.35.3-.3.37-.25.4-.18.44-.1.46-.05.5v49.12h-2v-49.2l.06-.74.18-.76.3-.73.42-.67.5-.6.6-.5.67-.42.72-.3.76-.17.75-.06h119.9z" stroke="#3a414a" stroke-width=".05" fill="#3a414a"/><path d="M659.67 1122.2l-.06.75-.18.76-.3.74-.4.67-.52.6-.6.5-.66.42-.73.3-.75.2-.74.05h-82.53v-2h82.46l.5-.04.46-.1.43-.2.4-.24.36-.3.3-.37.24-.4.18-.44.1-.46.05-.5v-86.5h2zm126.86-164.03H666.7l-1.13.1-1.07.24-1 .43-.95.58-.83.72-.7.83-.6.94-.4 1-.26 1.07-.1 1.14v49.12h-2v-49.2l.1-1.36.34-1.38.54-1.3.74-1.2.92-1.08 1.08-.92 1.2-.74 1.3-.54 1.38-.33 1.37-.1h119.9z" stroke="#3a414a" stroke-width=".05" fill="#3a414a"/><path d="M787.87 960.97l.4.82.3.37h-2.07v-2h1.13z" fill="#3a414a"/><path d="M787.9 960.96l.4.82.32.4h-2.14v-2.04h1.17zm-1.38-.77v1.94h2l-.26-.34-.42-.82-.22-.8z" stroke="#3a414a" stroke-width=".05" fill="#3a414a"/><path d="M788.28 956.54l-.4.83-.25.8h-1.13v-2h2.07z" fill="#3a414a"/><path d="M788.3 956.56l-.4.8-.25.83h-1.17v-2.06h2.14zm-1.77-.37v1.94h1.1l.2-.78.43-.83.26-.34z" stroke="#3a414a" stroke-width=".05" fill="#3a414a"/><path d="M572.2 1131.17h-1.03v-2h1.02z" fill="#3a414a"/><path d="M572.22 1131.2h-1.08v-2.06h1.08zm-1.03-2v1.94h.97v-1.95z" stroke="#3a414a" stroke-width=".05" fill="#3a414a"/><path d="M572.2 1127.17h-1.03v-2h1.02z" fill="#3a414a"/><path d="M572.22 1127.2h-1.08v-2.06h1.08zm-1.03-2v1.94h.97v-1.95z" stroke="#3a414a" stroke-width=".05" fill="#3a414a"/><use xlink:href="#C" transform="matrix(1,0,0,1,654.2716049382718,1014.3206480134592) translate(0 14.222222222222223)"/><path d="M1140.5 952.8l-.08 1-.24 1-.4.95-.52.87-.66.77-.78.65-.87.54-.94.38-.98.24-1 .07H972.94v-1h161.04l.88-.08.84-.2.8-.33.73-.46.66-.56.55-.65.45-.74.33-.8.2-.85.07-.88v-88.43h1zM1219 661h-72.98l-.88.07-.84.2-.8.33-.73.45-.66.56-.55.67-.45.73-.33.8-.2.84-.07.88v176.5h-1V666.47l.08-1 .24-1 .4-.93.52-.87.66-.78.78-.66.87-.53.94-.38.98-.24 1-.08H1219z" stroke="#3a414a" stroke-width=".05" fill="#3a414a"/><path d="M972.95 959.3h-.5l.02-.13-.08-.88h.55z" fill="#3a414a"/><path d="M972.98 959.32h-.55l.02-.15-.1-.9h.63zm-.56-1l.08.85v.1h.43v-.95z" stroke="#3a414a" stroke-width=".05" fill="#3a414a"/><path d="M1219.5 661h-.5v-1h.5z" fill="#3a414a"/><path d="M1219.53 661.02h-.57V660h.57zm-.52-1v.96h.47V660z" stroke="#3a414a" stroke-width=".05" fill="#3a414a"/><use xlink:href="#l" transform="matrix(1,0,0,1,1135.0617283950617,843.0100464663832) translate(0 14.222222222222223)"/><path d="M1223.16 1104.17a6 6 0 0 1 6-6h148a6 6 0 0 1 6 6v48a6 6 0 0 1-6 6h-148a6 6 0 0 1-6-6z" stroke="#3a414a" fill="#fff"/><use xlink:href="#D" transform="matrix(1,0,0,1,1235.1645516876602,1110.1666666666665) translate(14.944444444444436 22.27777777777778)"/><path d="M1383.16 1043.83c0 14.18-35.8 25.67-80 25.67-44.18 0-80-11.5-80-25.67 0-14.17 35.82-25.66 80-25.66 44.2 0 80 11.5 80 25.66z" stroke="#3a414a" fill="#fff"/><use xlink:href="#b" transform="matrix(1,0,0,1,1228.164551809779,1023.1666666666663) translate(66.3938888888889 25.65277777777778)"/><path d="M1303.16 1070.5v26.67" stroke="#3a414a" fill="none"/><path d="M1303.16 1070h.5v.5h-1v-.52zM1303.66 1097.67h-1v-.52h1z" stroke="#3a414a" stroke-width=".05" fill="#3a414a"/><path d="M1583.16 1043.83c0 14.18-35.8 25.67-80 25.67-44.18 0-80-11.5-80-25.67 0-14.17 35.82-25.66 80-25.66 44.2 0 80 11.5 80 25.66z" stroke="#3a414a" fill="#fff"/><use xlink:href="#c" transform="matrix(1,0,0,1,1428.1645516876602,1023.1666666666663) translate(23.245740740740736 25.65277777777778)"/><path d="M1583.16 1132.5c0 14.17-35.8 25.67-80 25.67-44.18 0-80-11.5-80-25.67 0-14.17 35.82-25.67 80-25.67 44.2 0 80 11.5 80 25.67z" stroke="#3a414a" fill="#fff"/><use xlink:href="#d" transform="matrix(1,0,0,1,1428.1645516876602,1111.8333333333326) translate(23.83216049382716 25.65277777777778)"/><path d="M1583.16 1221.17c0 14.17-35.8 25.66-80 25.66-44.18 0-80-11.5-80-25.66 0-14.18 35.82-25.67 80-25.67 44.2 0 80 11.5 80 25.67z" stroke="#3a414a" fill="#fff"/><use xlink:href="#E" transform="matrix(1,0,0,1,1428.1645516876602,1200.4999999999993) translate(45.37537037037037 25.65277777777778)"/><path d="M1383.16 1221.17c0 14.17-35.8 25.66-80 25.66-44.18 0-80-11.5-80-25.66 0-14.18 35.82-25.67 80-25.67 44.2 0 80 11.5 80 25.67z" stroke="#3a414a" fill="#fff"/><use xlink:href="#F" transform="matrix(1,0,0,1,1228.164551809779,1200.4999999999993) translate(47.84450617283951 25.65277777777778)"/><path d="M1303.16 1194.5v-35.33" stroke="#3a414a" fill="none"/><path d="M1303.66 1195.02l-.5-.02h-.5v-.5h1zM1303.66 1159.18h-1v-.5h1z" stroke="#3a414a" stroke-width=".05" fill="#3a414a"/><path d="M1503.16 1194.5v-11.67a6 6 0 0 0-6-6h-188a6 6 0 0 1-6-6v-11.66" stroke="#3a414a" fill="none"/><path d="M1503.66 1195.02l-.5-.02h-.5v-.5h1zM1303.66 1159.18h-1v-.5h1z" stroke="#3a414a" stroke-width=".05" fill="#3a414a"/><path d="M1422.17 1132.5h-38" stroke="#3a414a" fill="none"/><path d="M1422.66 1132.57l.02.43h-.53v-1h.53zM1384.18 1133h-.52v-1h.52z" stroke="#3a414a" stroke-width=".05" fill="#3a414a"/><path d="M1503.16 1070.5v7.33a6 6 0 0 1-6 6h-188a6 6 0 0 0-6 6v7.34" stroke="#3a414a" fill="none"/><path d="M1503.16 1070h.5v.5h-1v-.52zM1303.66 1097.67h-1v-.52h1z" stroke="#3a414a" stroke-width=".05" fill="#3a414a"/><path d="M875.87 1071.77a8 8 0 0 1 9.6 0l70.4 52.8a4.5 4.5 0 0 1 0 7.2l-70.4 52.8a8 8 0 0 1-9.6 0l-70.4-52.8a4.5 4.5 0 0 1 0-7.2z" stroke="#3a414a" fill="#fff"/><use xlink:href="#G" transform="matrix(1,0,0,1,805.6666666666669,1073.1666666666665) translate(20.71487654320987 59.02777777777778)"/><path d="M583.15 1128.63v.1l.03.1.03.06.05.06.05.06.06.05.07.04.07.04.07.02h95.2v2H583.6l-.34-.02-.38-.1-.36-.14-.34-.2-.3-.26-.25-.3-.2-.34-.16-.36-.1-.38-.02-.35v-1.53h2zm204.06.54v2h-95.63v-2z" stroke="#3a414a" stroke-width=".05" fill="#3a414a"/><path d="M678.8 1127.17h-95.65v2h-2v-4h97.63zm108.4 0h-95.63v-2h95.64z" stroke="#3a414a" stroke-width=".05" fill="#3a414a"/><path d="M788.53 1129.8l.42.82.4.55h-2.17v-2h1.17z" fill="#3a414a"/><path d="M788.56 1129.8l.4.8.45.6h-2.24v-2.06h1.2zm-1.35-.6v1.94h2.1l-.37-.5-.42-.83-.17-.6z" stroke="#3a414a" stroke-width=".05" fill="#3a414a"/><path d="M788.95 1125.38l-.42.82-.25.88-1.1.1v-2h1.93z" fill="#3a414a"/><path d="M788.97 1125.4l-.4.8-.27.9-1.14.1v-2.06h2zm-1.76-.2v1.94l1.06-.08.25-.87.43-.84.13-.17zM583.18 1131.17h-1.03v-2h1.03zM583.18 1127.17h-1.03v-2h1.03z" stroke="#3a414a" stroke-width=".05" fill="#3a414a"/><use xlink:href="#k" transform="matrix(1,0,0,1,678.7847472777548,1117.4999999999998) translate(0 14.222222222222223)"/><path d="M1092.96 1128.67H973.63v-1h119.33zm129.2 0h-119.33v-1h119.33z" stroke="#3a414a" stroke-width=".05" fill="#3a414a"/><path d="M973.64 1128.67h-.56l.06-.67-.03-.33h.54z" fill="#3a414a"/><path d="M973.66 1128.7h-.6l.06-.7-.04-.36h.58zm-.52-1l.03.3-.06.64h.5v-.95z" stroke="#3a414a" stroke-width=".05" fill="#3a414a"/><path d="M1222.66 1128.67h-.5v-1h.5z" fill="#3a414a"/><path d="M1222.7 1128.7h-.57v-1.06h.56zm-.52-1v.94h.46v-.95z" stroke="#3a414a" stroke-width=".05" fill="#3a414a"/><use xlink:href="#l" transform="matrix(1,0,0,1,1092.9568398637175,1117.4999999999995) translate(0 14.222222222222223)"/><path d="M1237.07 437.03a8 8 0 0 1 0 9.6l-52.8 70.4a4.5 4.5 0 0 1-7.2 0l-52.8-70.4a8 8 0 0 1 0-9.6l52.8-70.4a4.5 4.5 0 0 1 7.2 0z" stroke="#3a414a" fill="#fff"/><use xlink:href="#H" transform="matrix(6.123233995736766e-17,1,-1,6.123233995736766e-17,1235.666666666667,366.83333333333314) translate(15.15932098765432 59.02777777777778)"/><path d="M1181.17 363.83h-1v-70.16h1zM1219 241h-32.3l-.9.07-.83.2-.8.33-.74.45-.65.56-.56.67-.45.73-.33.8-.2.84-.07.88v25.8h-1V246.5l.07-1 .24-1 .4-.93.53-.87.67-.78.78-.66.87-.53.94-.38 1-.24 1-.08H1219z" stroke="#3a414a" stroke-width=".05" fill="#3a414a"/><path d="M1181.17 364.38l-.5-.05-.5.05v-.56h1z" fill="#3a414a"/><path d="M1181.2 364.4l-.53-.04-.53.04v-.6h1.05zm-1-.56v.5l.47-.03.47.05v-.5z" stroke="#3a414a" stroke-width=".05" fill="#3a414a"/><path d="M1219.5 241h-.5v-1h.5z" fill="#3a414a"/><path d="M1219.53 241.03h-.57v-1.06h.57zm-.52-1v.94h.47v-.94z" stroke="#3a414a" stroke-width=".05" fill="#3a414a"/><use xlink:href="#I" transform="matrix(1,0,0,1,1173.2839506172843,272.33225084383054) translate(0 14.222222222222223)"/><path d="M1183.67 654.46l.04.5.12.47.18.43.24.4.3.36.37.3.4.25.44.18.46.1.5.05h31.8v2h-31.87l-.75-.06-.76-.18-.72-.3-.67-.4-.6-.52-.5-.6-.42-.67-.3-.72-.18-.77-.05-.74V620h2zm0-55.8h-2v-78.32h2z" stroke="#3a414a" stroke-width=".05" fill="#3a414a"/><path d="M1179.67 654.46l.1 1.13.24 1.06.43 1.02.58.93.72.85.83.7.94.58 1 .42 1.07.26 1.14.1h31.8v2h-31.87l-1.37-.1-1.38-.34-1.3-.54-1.2-.74-1.08-.9-.92-1.1-.74-1.2-.54-1.3-.33-1.37-.1-1.36V620h2zm0-55.8h-2v-78.32h2z" stroke="#3a414a" stroke-width=".05" fill="#3a414a"/><path d="M1183.67 520.36h-2v-1.13l.8-.24.84-.42.37-.27z" fill="#3a414a"/><path d="M1183.7 520.4h-2.06v-1.2l.83-.23.83-.4.4-.3zm-.38-1.8l-.83.42-.8.23v1.1h1.94v-2z" stroke="#3a414a" stroke-width=".05" fill="#3a414a"/><path d="M1178.03 518.58l.82.4.82.25v1.13h-2v-2.05z" fill="#3a414a"/><path d="M1178.04 518.56l.82.4.83.25v1.2h-2.06v-2.14zm-.35 1.78h1.94v-1.1l-.8-.22-.83-.42-.3-.24z" stroke="#3a414a" stroke-width=".05" fill="#3a414a"/><path d="M1219.5 659.5h-1.03v-2h1.03z" fill="#3a414a"/><path d="M1219.53 659.52h-1.08v-2.04h1.08zm-1.03-2v1.96h.97v-1.96z" stroke="#3a414a" stroke-width=".05" fill="#3a414a"/><path d="M1219.5 663.5h-1.03v-2h1.03z" fill="#3a414a"/><path d="M1219.53 663.52h-1.08v-2.04h1.08zm-1.03-2v1.96h.97v-1.96z" stroke="#3a414a" stroke-width=".05" fill="#3a414a"/><use xlink:href="#k" transform="matrix(1,0,0,1,1174.2716049382718,598.6677491561692) translate(0 14.222222222222223)"/><path d="M400 476.5a6 6 0 0 1 6-6h148a6 6 0 0 1 6 6v48a6 6 0 0 1-6 6H406a6 6 0 0 1-6-6z" stroke="#3a414a" fill="#fff"/><use xlink:href="#J" transform="matrix(1,0,0,1,412.00000000000006,482.49999999999983) translate(27.938271604938272 22.27777777777778)"/><path d="M340 500.5c0 14.17-35.82 25.67-80 25.67s-80-11.5-80-25.67c0-14.18 35.82-25.67 80-25.67s80 11.5 80 25.67z" stroke="#3a414a" fill="#fff"/><use xlink:href="#i" transform="matrix(1,0,0,1,185,479.83333333333314) translate(47.258086419753084 25.65277777777778)"/><path d="M560 595.83c0 14.18-35.82 25.67-80 25.67s-80-11.5-80-25.67c0-14.17 35.82-25.66 80-25.66s80 11.5 80 25.66z" stroke="#3a414a" fill="#fff"/><use xlink:href="#K" transform="matrix(1,0,0,1,405.0000000000001,575.1666666666667) translate(44.78895061728395 25.65277777777778)"/><path d="M480 569.17v-28.34" stroke="#3a414a" fill="none"/><path d="M480.5 569.68h-1v-.53h1zM480.5 540.85h-1v-.52h1z" stroke="#3a414a" stroke-width=".05" fill="#3a414a"/><path d="M341 500.5h48" stroke="#3a414a" fill="none"/><path d="M341 501h-.5v-.58l-.02-.42h.53zM389.5 501h-.5v-1h.5z" stroke="#3a414a" stroke-width=".05" fill="#3a414a"/><path d="M475.2 304.77a8 8 0 0 1 9.6 0l70.4 52.8a4.5 4.5 0 0 1 0 7.2l-70.4 52.8a8 8 0 0 1-9.6 0l-70.4-52.8a4.5 4.5 0 0 1 0-7.2z" stroke="#3a414a" fill="#fff"/><use xlink:href="#G" transform="matrix(1,0,0,1,405,306.16666666666646) translate(20.71487654320987 59.02777777777778)"/><path d="M615.48 494.54l-.1 1.37-.34 1.38-.54 1.3-.74 1.2-.92 1.1-1.07.9-1.2.74-1.3.54-1.4.33-1.36.1h-35v-2h34.93l1.14-.1 1.07-.25 1-.42.95-.57.82-.7.72-.85.57-.92.43-1.02.25-1.06.1-1.14v-52.22h2zm-7.6-136.77l1.38.33 1.3.54 1.2.74 1.08.92.92 1.07.74 1.2.54 1.3.33 1.4.1 1.36v54.27h-2v-54.2l-.1-1.13-.24-1.06-.42-1-.57-.95-.7-.83-.84-.7-.95-.6-1-.4-1.08-.26-1.14-.1h-32.95v-2h33.03z" stroke="#3a414a" stroke-width=".05" fill="#3a414a"/><path d="M611.48 494.54l-.06.74-.2.77-.3.72-.4.67-.5.6-.6.5-.67.42-.73.3-.76.18-.75.06h-35v-2h34.93l.5-.04.47-.1.44-.2.4-.24.35-.3.3-.36.25-.4.18-.43.1-.46.05-.5v-52.23h2zm-4.22-132.8l.76.17.73.3.66.42.6.5.52.6.4.67.3.72.2.76.06.75v54.27h-2v-54.2l-.05-.5-.1-.46-.2-.43-.23-.4-.3-.35-.36-.3-.4-.25-.44-.18-.46-.1-.5-.05h-32.97v-2h33.04z" stroke="#3a414a" stroke-width=".05" fill="#3a414a"/><path d="M573.5 359.67h-1.13l-.24-.8-.4-.83-.3-.37h2.07z" fill="#3a414a"/><path d="M573.52 359.7h-1.17l-.24-.83-.4-.8-.32-.43h2.14zm-2.04-2l.26.33.42.83.22.78h1.1v-1.95z" stroke="#3a414a" stroke-width=".05" fill="#3a414a"/><path d="M573.5 363.67h-2.07l.3-.38.4-.83.24-.8h1.13z" fill="#3a414a"/><path d="M573.52 363.7h-2.14l.32-.42.4-.82.25-.82h1.17zm-1.14-2l-.22.78-.42.82-.26.34h2v-1.95z" stroke="#3a414a" stroke-width=".05" fill="#3a414a"/><path d="M571.53 503.5h-1.03v-2h1.03z" fill="#3a414a"/><path d="M571.55 503.52h-1.07v-2.04h1.07zm-1.02-2v1.96h.97v-1.96z" stroke="#3a414a" stroke-width=".05" fill="#3a414a"/><path d="M571.53 499.5h-1.03v-2h1.03z" fill="#3a414a"/><path d="M571.55 499.52h-1.07v-2.04h1.07zm-1.02-2v1.96h.97v-1.96z" stroke="#3a414a" stroke-width=".05" fill="#3a414a"/><use xlink:href="#k" transform="matrix(1,0,0,1,606.0795175952983,420.903981328513) translate(0 14.222222222222223)"/><path d="M348.02 354.65l.08.88.2.84.33.8.45.73.56.66.65.56.73.45.8.33.84.2.88.07H387v1h-33.5l-1-.08-1-.25-.95-.4-.87-.52-.77-.67-.66-.77-.54-.88-.4-.94-.23-1-.08-1V306.6h1zM399 243.67h-45.45l-.88.07-.84.2-.8.33-.74.45-.66.56-.56.66-.45.73-.33.8-.2.84-.08.9v36.06h-1v-36.1l.08-1 .24-1 .4-.94.53-.88.66-.77.77-.66.87-.53.95-.4 1-.22 1-.08H399z" stroke="#3a414a" stroke-width=".05" fill="#3a414a"/><path d="M387.52 360.67l.05.5H387v-1h.57z" fill="#3a414a"/><path d="M387.55 360.67l.05.52h-.6v-1.06h.6zm-.5-.48v.94h.5l-.05-.47.05-.48z" stroke="#3a414a" stroke-width=".05" fill="#3a414a"/><path d="M399.5 243.67h-.5v-1h.5z" fill="#3a414a"/><path d="M399.52 243.7h-.56v-1.06h.56zm-.5-1v.94h.46v-.95z" stroke="#3a414a" stroke-width=".05" fill="#3a414a"/><use xlink:href="#l" transform="matrix(1,0,0,1,342.5871490348099,285.2626853198745) translate(0 14.222222222222223)"/><path d="M230.98 509.24h2.1m4.22 0h4.22m4.2 0h4.23m4.2 0h4.22m4.22 0h4.2m4.22 0h4.2m4.23 0h4.2m4.22 0h2.1M231 509.24h-.52M289.97 509.24h.5" stroke="#3a414a" fill="none"/><path d="M1095.2 56.77a8 8 0 0 1 9.6 0l70.4 52.8a4.5 4.5 0 0 1 0 7.2l-70.4 52.8a8 8 0 0 1-9.6 0l-70.4-52.8a4.5 4.5 0 0 1 0-7.2z" stroke="#3a414a" fill="#fff"/><use xlink:href="#L" transform="matrix(1,0,0,1,1025,58.166666666666515) translate(39.20253086419753 59.02777777777778)"/><path d="M1199 234.48l.07.88.2.84.33.8.45.73.56.66.67.55.74.45.8.33.84.2.88.07H1219v1h-14.52l-1-.08-1-.24-.93-.4-.87-.52-.78-.66-.66-.78-.53-.87-.38-.94-.24-.98-.08-1V187.5h1zm-5.48-121.73l1 .23.93.4.87.53.78.67.66.78.53.87.38.94.24 1 .08 1v47h-1V119.2l-.07-.9-.2-.83-.33-.8-.45-.73-.56-.66-.67-.56-.73-.45-.8-.33-.84-.2-.88-.07H1178v-1h14.52z" stroke="#3a414a" stroke-width=".05" fill="#3a414a"/><path d="M1178.02 113.67h-.56l.04-.5-.04-.5h.56z" fill="#3a414a"/><path d="M1178.04 113.7h-.6l.04-.53-.05-.53h.6zm-.56-1l.05.47-.05.47h.5v-.95z" stroke="#3a414a" stroke-width=".05" fill="#3a414a"/><path d="M1219.5 241h-.5v-1h.5z" fill="#3a414a"/><path d="M1219.53 241.03h-.57v-1.06h.57zm-.52-1v.94h.47v-.94z" stroke="#3a414a" stroke-width=".05" fill="#3a414a"/><use xlink:href="#M" transform="matrix(1,0,0,1,1193.5628108845644,166.16666666666654) translate(0 14.222222222222223)"/><path d="M1192.52 199.5l1 .08 1 .24.93.4.87.52.78.66.66.78.53.87.38.94.24.98.08 1v28.5l.07.88.2.84.33.8.45.73.56.66.67.55.73.45.8.33.84.2.88.07H1219v1h-14.52l-1-.08-1-.24-.93-.4-.87-.52-.78-.66-.66-.78-.53-.87-.38-.94-.24-.98-.08-1v-28.5l-.07-.88-.2-.84-.33-.8-.45-.73-.56-.66-.67-.55-.73-.45-.8-.33-.84-.2-.88-.07h-129.7v-1zm-204-85.83l-.88.07-.84.2-.8.33-.73.45-.66.56-.55.66-.45.73-.33.8-.2.84-.07.9v74.78l.07.88.2.84.33.8.45.73.56.66.67.55.73.45.8.33.84.2.88.07h64.37v1h-64.42l-1-.08-1-.24-.93-.4-.87-.52-.78-.66-.66-.78-.53-.87-.38-.94-.24-.98-.08-1v-74.87l.08-1 .24-1 .38-.94.54-.86.66-.77.78-.66.87-.53.94-.4.98-.22 1-.08H1022v1z" stroke="#3a414a" stroke-width=".05" fill="#3a414a"/><path d="M1022.5 113.17l.04.5h-.55v-1h.54z" fill="#3a414a"/><path d="M1022.52 113.17l.05.52h-.6v-1.06h.6zm-.5-.48v.94h.5l-.05-.47.05-.48z" stroke="#3a414a" stroke-width=".05" fill="#3a414a"/><path d="M1219.5 241h-.5v-1h.5z" fill="#3a414a"/><path d="M1219.53 241.03h-.57v-1.06h.57zm-.52-1v.94h.47v-.94z" stroke="#3a414a" stroke-width=".05" fill="#3a414a"/><use xlink:href="#M" transform="matrix(1,0,0,1,1052.8940292388909,189.33333333333334) translate(0 14.222222222222223)"/><defs><path fill="#3a414a" d="M30 0v-248h187v28H63v79h144v27H63v87h162V0H30" id="N"/><path fill="#3a414a" d="M210-169c-67 3-38 105-44 169h-31v-121c0-29-5-50-35-48C34-165 62-65 56 0H25l-1-190h30c1 10-1 24 2 32 10-44 99-50 107 0 11-21 27-35 58-36 85-2 47 119 55 194h-31v-121c0-29-5-49-35-48" id="O"/><path fill="#3a414a" d="M115-194c55 1 70 41 70 98S169 2 115 4C84 4 66-9 55-30l1 105H24l-1-265h31l2 30c10-21 28-34 59-34zm-8 174c40 0 45-34 45-75s-6-73-45-74c-42 0-51 32-51 76 0 43 10 73 51 73" id="P"/><path fill="#3a414a" d="M24 0v-261h32V0H24" id="Q"/><path fill="#3a414a" d="M100-194c62-1 85 37 85 99 1 63-27 99-86 99S16-35 15-95c0-66 28-99 85-99zM99-20c44 1 53-31 53-75 0-43-8-75-51-75s-53 32-53 75 10 74 51 75" id="R"/><path fill="#3a414a" d="M179-190L93 31C79 59 56 82 12 73V49c39 6 53-20 64-50L1-190h34L92-34l54-156h33" id="S"/><path fill="#3a414a" d="M100-194c63 0 86 42 84 106H49c0 40 14 67 53 68 26 1 43-12 49-29l28 8c-11 28-37 45-77 45C44 4 14-33 15-96c1-61 26-98 85-98zm52 81c6-60-76-77-97-28-3 7-6 17-6 28h103" id="T"/><g id="a"><use transform="matrix(0.06172839506172839,0,0,0.06172839506172839,0,0)" xlink:href="#N"/><use transform="matrix(0.06172839506172839,0,0,0.06172839506172839,14.814814814814813,0)" xlink:href="#O"/><use transform="matrix(0.06172839506172839,0,0,0.06172839506172839,33.2716049382716,0)" xlink:href="#P"/><use transform="matrix(0.06172839506172839,0,0,0.06172839506172839,45.61728395061728,0)" xlink:href="#Q"/><use transform="matrix(0.06172839506172839,0,0,0.06172839506172839,50.49382716049382,0)" xlink:href="#R"/><use transform="matrix(0.06172839506172839,0,0,0.06172839506172839,62.8395061728395,0)" xlink:href="#S"/><use transform="matrix(0.06172839506172839,0,0,0.06172839506172839,73.9506172839506,0)" xlink:href="#T"/><use transform="matrix(0.06172839506172839,0,0,0.06172839506172839,86.29629629629629,0)" xlink:href="#T"/></g><path fill="#3a414a" d="M24-231v-30h32v30H24zM24 0v-190h32V0H24" id="U"/><path fill="#3a414a" d="M85-194c31 0 48 13 60 33l-1-100h32l1 261h-30c-2-10 0-23-3-31C134-8 116 4 85 4 32 4 16-35 15-94c0-66 23-100 70-100zm9 24c-40 0-46 34-46 75 0 40 6 74 45 74 42 0 51-32 51-76 0-42-9-74-50-73" id="V"/><g id="b"><use transform="matrix(0.06172839506172839,0,0,0.06172839506172839,0,0)" xlink:href="#U"/><use transform="matrix(0.06172839506172839,0,0,0.06172839506172839,4.876543209876543,0)" xlink:href="#V"/><path fill="#3a414a" d="M-1.1 1.54h19.43v1.63H-1.1z"/></g><path fill="#3a414a" d="M101-234c-31-9-42 10-38 44h38v23H63V0H32v-167H5v-23h27c-7-52 17-82 69-68v24" id="W"/><path fill="#3a414a" d="M114-163C36-179 61-72 57 0H25l-1-190h30c1 12-1 29 2 39 6-27 23-49 58-41v29" id="X"/><path fill="#3a414a" d="M135-143c-3-34-86-38-87 0 15 53 115 12 119 90S17 21 10-45l28-5c4 36 97 45 98 0-10-56-113-15-118-90-4-57 82-63 122-42 12 7 21 19 24 35" id="Y"/><path fill="#3a414a" d="M59-47c-2 24 18 29 38 22v24C64 9 27 4 27-40v-127H5v-23h24l9-43h21v43h35v23H59v120" id="Z"/><path fill="#3a414a" d="M-5 72V49h209v23H-5" id="aa"/><path fill="#3a414a" d="M117-194c89-4 53 116 60 194h-32v-121c0-31-8-49-39-48C34-167 62-67 57 0H25l-1-190h30c1 10-1 24 2 32 11-22 29-35 61-36" id="ab"/><path fill="#3a414a" d="M141-36C126-15 110 5 73 4 37 3 15-17 15-53c-1-64 63-63 125-63 3-35-9-54-41-54-24 1-41 7-42 31l-33-3c5-37 33-52 76-52 45 0 72 20 72 64v82c-1 20 7 32 28 27v20c-31 9-61-2-59-35zM48-53c0 20 12 33 32 33 41-3 63-29 60-74-43 2-92-5-92 41" id="ac"/><g id="c"><use transform="matrix(0.06172839506172839,0,0,0.06172839506172839,0,0)" xlink:href="#W"/><use transform="matrix(0.06172839506172839,0,0,0.06172839506172839,6.172839506172839,0)" xlink:href="#U"/><use transform="matrix(0.06172839506172839,0,0,0.06172839506172839,11.049382716049383,0)" xlink:href="#X"/><use transform="matrix(0.06172839506172839,0,0,0.06172839506172839,18.395061728395063,0)" xlink:href="#Y"/><use transform="matrix(0.06172839506172839,0,0,0.06172839506172839,29.506172839506174,0)" xlink:href="#Z"/><use transform="matrix(0.06172839506172839,0,0,0.06172839506172839,35.67901234567901,0)" xlink:href="#aa"/><use transform="matrix(0.06172839506172839,0,0,0.06172839506172839,48.02469135802469,0)" xlink:href="#ab"/><use transform="matrix(0.06172839506172839,0,0,0.06172839506172839,60.37037037037037,0)" xlink:href="#ac"/><use transform="matrix(0.06172839506172839,0,0,0.06172839506172839,72.71604938271605,0)" xlink:href="#O"/><use transform="matrix(0.06172839506172839,0,0,0.06172839506172839,91.17283950617283,0)" xlink:href="#T"/></g><g id="d"><use transform="matrix(0.06172839506172839,0,0,0.06172839506172839,0,0)" xlink:href="#Q"/><use transform="matrix(0.06172839506172839,0,0,0.06172839506172839,4.876543209876543,0)" xlink:href="#ac"/><use transform="matrix(0.06172839506172839,0,0,0.06172839506172839,17.22222222222222,0)" xlink:href="#Y"/><use transform="matrix(0.06172839506172839,0,0,0.06172839506172839,28.333333333333332,0)" xlink:href="#Z"/><use transform="matrix(0.06172839506172839,0,0,0.06172839506172839,34.50617283950617,0)" xlink:href="#aa"/><use transform="matrix(0.06172839506172839,0,0,0.06172839506172839,46.85185185185185,0)" xlink:href="#ab"/><use transform="matrix(0.06172839506172839,0,0,0.06172839506172839,59.197530864197525,0)" xlink:href="#ac"/><use transform="matrix(0.06172839506172839,0,0,0.06172839506172839,71.5432098765432,0)" xlink:href="#O"/><use transform="matrix(0.06172839506172839,0,0,0.06172839506172839,89.99999999999999,0)" xlink:href="#T"/></g><g id="e"><use transform="matrix(0.06172839506172839,0,0,0.06172839506172839,0,0)" xlink:href="#T"/><use transform="matrix(0.06172839506172839,0,0,0.06172839506172839,12.345679012345679,0)" xlink:href="#O"/><use transform="matrix(0.06172839506172839,0,0,0.06172839506172839,30.80246913580247,0)" xlink:href="#ac"/><use transform="matrix(0.06172839506172839,0,0,0.06172839506172839,43.148148148148145,0)" xlink:href="#U"/><use transform="matrix(0.06172839506172839,0,0,0.06172839506172839,48.02469135802469,0)" xlink:href="#Q"/></g><g id="f"><use transform="matrix(0.06172839506172839,0,0,0.06172839506172839,0,0)" xlink:href="#X"/><use transform="matrix(0.06172839506172839,0,0,0.06172839506172839,7.345679012345679,0)" xlink:href="#R"/><use transform="matrix(0.06172839506172839,0,0,0.06172839506172839,19.691358024691358,0)" xlink:href="#Q"/><use transform="matrix(0.06172839506172839,0,0,0.06172839506172839,24.5679012345679,0)" xlink:href="#T"/></g><path fill="#3a414a" d="M205 0l-28-72H64L36 0H1l101-248h38L239 0h-34zm-38-99l-47-123c-12 45-31 82-46 123h93" id="ad"/><g id="g"><use transform="matrix(0.06172839506172839,0,0,0.06172839506172839,0,0)" xlink:href="#ad"/><use transform="matrix(0.06172839506172839,0,0,0.06172839506172839,14.814814814814813,0)" xlink:href="#U"/><use transform="matrix(0.06172839506172839,0,0,0.06172839506172839,19.691358024691354,0)" xlink:href="#X"/><use transform="matrix(0.06172839506172839,0,0,0.06172839506172839,27.03703703703703,0)" xlink:href="#P"/><use transform="matrix(0.06172839506172839,0,0,0.06172839506172839,39.38271604938271,0)" xlink:href="#R"/><use transform="matrix(0.06172839506172839,0,0,0.06172839506172839,51.728395061728385,0)" xlink:href="#X"/><use transform="matrix(0.06172839506172839,0,0,0.06172839506172839,59.07407407407406,0)" xlink:href="#Z"/></g><path fill="#3a414a" d="M96-169c-40 0-48 33-48 73s9 75 48 75c24 0 41-14 43-38l32 2c-6 37-31 61-74 61-59 0-76-41-82-99-10-93 101-131 147-64 4 7 5 14 7 22l-32 3c-4-21-16-35-41-35" id="ae"/><g id="h"><use transform="matrix(0.06172839506172839,0,0,0.06172839506172839,0,0)" xlink:href="#U"/><use transform="matrix(0.06172839506172839,0,0,0.06172839506172839,4.876543209876543,0)" xlink:href="#ae"/><use transform="matrix(0.06172839506172839,0,0,0.06172839506172839,15.987654320987653,0)" xlink:href="#ac"/><use transform="matrix(0.06172839506172839,0,0,0.06172839506172839,28.333333333333332,0)" xlink:href="#R"/><use transform="matrix(0.06172839506172839,0,0,0.06172839506172839,40.67901234567901,0)" xlink:href="#aa"/><use transform="matrix(0.06172839506172839,0,0,0.06172839506172839,53.02469135802469,0)" xlink:href="#ae"/><use transform="matrix(0.06172839506172839,0,0,0.06172839506172839,64.1358024691358,0)" xlink:href="#R"/><use transform="matrix(0.06172839506172839,0,0,0.06172839506172839,76.48148148148148,0)" xlink:href="#V"/><use transform="matrix(0.06172839506172839,0,0,0.06172839506172839,88.82716049382717,0)" xlink:href="#T"/><path fill="#3a414a" d="M-1.1 1.54h103.4v1.63H-1.1z"/></g><g id="i"><use transform="matrix(0.06172839506172839,0,0,0.06172839506172839,0,0)" xlink:href="#ab"/><use transform="matrix(0.06172839506172839,0,0,0.06172839506172839,12.345679012345679,0)" xlink:href="#ac"/><use transform="matrix(0.06172839506172839,0,0,0.06172839506172839,24.691358024691358,0)" xlink:href="#O"/><use transform="matrix(0.06172839506172839,0,0,0.06172839506172839,43.148148148148145,0)" xlink:href="#T"/></g><path fill="#3a414a" d="M115-194c53 0 69 39 70 98 0 66-23 100-70 100C84 3 66-7 56-30L54 0H23l1-261h32v101c10-23 28-34 59-34zm-8 174c40 0 45-34 45-75 0-40-5-75-45-74-42 0-51 32-51 76 0 43 10 73 51 73" id="af"/><g id="j"><use transform="matrix(0.06172839506172839,0,0,0.06172839506172839,0,0)" xlink:href="#af"/><use transform="matrix(0.06172839506172839,0,0,0.06172839506172839,12.345679012345679,0)" xlink:href="#ac"/><use transform="matrix(0.06172839506172839,0,0,0.06172839506172839,24.691358024691358,0)" xlink:href="#Y"/><use transform="matrix(0.06172839506172839,0,0,0.06172839506172839,35.80246913580247,0)" xlink:href="#T"/><use transform="matrix(0.06172839506172839,0,0,0.06172839506172839,48.148148148148145,0)" xlink:href="#V"/><use transform="matrix(0.06172839506172839,0,0,0.06172839506172839,60.49382716049382,0)" xlink:href="#aa"/><use transform="matrix(0.06172839506172839,0,0,0.06172839506172839,72.8395061728395,0)" xlink:href="#U"/><use transform="matrix(0.06172839506172839,0,0,0.06172839506172839,77.71604938271605,0)" xlink:href="#ab"/></g><path fill="#333" d="M175 0L67-191c6 58 2 128 3 191H24v-248h59L193-55c-6-58-2-129-3-193h46V0h-61" id="ag"/><use transform="matrix(0.04938271604938272,0,0,0.04938271604938272,0,0)" xlink:href="#ag" id="k"/><path fill="#333" d="M23 0v-37h61v-169l-59 37v-38l62-41h46v211h57V0H23" id="ah"/><use transform="matrix(0.04938271604938272,0,0,0.04938271604938272,0,0)" xlink:href="#ah" id="l"/><path fill="#3a414a" d="M63-220v92h138v28H63V0H30v-248h175v28H63" id="ai"/><path fill="#3a414a" d="M177-190C167-65 218 103 67 71c-23-6-38-20-44-43l32-5c15 47 100 32 89-28v-30C133-14 115 1 83 1 29 1 15-40 15-95c0-56 16-97 71-98 29-1 48 16 59 35 1-10 0-23 2-32h30zM94-22c36 0 50-32 50-73 0-42-14-75-50-75-39 0-46 34-46 75s6 73 46 73" id="aj"/><path fill="#3a414a" d="M106-169C34-169 62-67 57 0H25v-261h32l-1 103c12-21 28-36 61-36 89 0 53 116 60 194h-32v-121c2-32-8-49-39-48" id="ak"/><g id="m"><use transform="matrix(0.06172839506172839,0,0,0.06172839506172839,0,0)" xlink:href="#ai"/><use transform="matrix(0.06172839506172839,0,0,0.06172839506172839,13.518518518518517,0)" xlink:href="#Q"/><use transform="matrix(0.06172839506172839,0,0,0.06172839506172839,18.39506172839506,0)" xlink:href="#U"/><use transform="matrix(0.06172839506172839,0,0,0.06172839506172839,23.2716049382716,0)" xlink:href="#aj"/><use transform="matrix(0.06172839506172839,0,0,0.06172839506172839,35.61728395061728,0)" xlink:href="#ak"/><use transform="matrix(0.06172839506172839,0,0,0.06172839506172839,47.962962962962955,0)" xlink:href="#Z"/></g><path fill="#3a414a" d="M84 4C-5 8 30-112 23-190h32v120c0 31 7 50 39 49 72-2 45-101 50-169h31l1 190h-30c-1-10 1-25-2-33-11 22-28 36-60 37" id="al"/><g id="n"><use transform="matrix(0.06172839506172839,0,0,0.06172839506172839,0,0)" xlink:href="#ab"/><use transform="matrix(0.06172839506172839,0,0,0.06172839506172839,12.345679012345679,0)" xlink:href="#al"/><use transform="matrix(0.06172839506172839,0,0,0.06172839506172839,24.691358024691358,0)" xlink:href="#O"/><use transform="matrix(0.06172839506172839,0,0,0.06172839506172839,43.148148148148145,0)" xlink:href="#af"/><use transform="matrix(0.06172839506172839,0,0,0.06172839506172839,55.49382716049382,0)" xlink:href="#T"/><use transform="matrix(0.06172839506172839,0,0,0.06172839506172839,67.8395061728395,0)" xlink:href="#X"/><path fill="#3a414a" d="M-1.1 1.54h77.4v1.63H-1.1z"/></g><g id="o"><use transform="matrix(0.06172839506172839,0,0,0.06172839506172839,0,0)" xlink:href="#V"/><use transform="matrix(0.06172839506172839,0,0,0.06172839506172839,12.345679012345679,0)" xlink:href="#T"/><use transform="matrix(0.06172839506172839,0,0,0.06172839506172839,24.691358024691358,0)" xlink:href="#P"/><use transform="matrix(0.06172839506172839,0,0,0.06172839506172839,37.03703703703704,0)" xlink:href="#ac"/><use transform="matrix(0.06172839506172839,0,0,0.06172839506172839,49.382716049382715,0)" xlink:href="#X"/><use transform="matrix(0.06172839506172839,0,0,0.06172839506172839,56.72839506172839,0)" xlink:href="#Z"/><use transform="matrix(0.06172839506172839,0,0,0.06172839506172839,62.901234567901234,0)" xlink:href="#al"/><use transform="matrix(0.06172839506172839,0,0,0.06172839506172839,75.24691358024691,0)" xlink:href="#X"/><use transform="matrix(0.06172839506172839,0,0,0.06172839506172839,82.5925925925926,0)" xlink:href="#T"/><use transform="matrix(0.06172839506172839,0,0,0.06172839506172839,94.93827160493828,0)" xlink:href="#aa"/><use transform="matrix(0.06172839506172839,0,0,0.06172839506172839,107.28395061728396,0)" xlink:href="#Z"/><use transform="matrix(0.06172839506172839,0,0,0.06172839506172839,113.4567901234568,0)" xlink:href="#U"/><use transform="matrix(0.06172839506172839,0,0,0.06172839506172839,118.33333333333334,0)" xlink:href="#O"/><use transform="matrix(0.06172839506172839,0,0,0.06172839506172839,136.79012345679013,0)" xlink:href="#T"/></g><path fill="#3a414a" d="M108 0H70L1-190h34L89-25l56-165h34" id="am"/><g id="p"><use transform="matrix(0.06172839506172839,0,0,0.06172839506172839,0,0)" xlink:href="#ac"/><use transform="matrix(0.06172839506172839,0,0,0.06172839506172839,12.345679012345679,0)" xlink:href="#X"/><use transform="matrix(0.06172839506172839,0,0,0.06172839506172839,19.691358024691358,0)" xlink:href="#X"/><use transform="matrix(0.06172839506172839,0,0,0.06172839506172839,27.037037037037038,0)" xlink:href="#U"/><use transform="matrix(0.06172839506172839,0,0,0.06172839506172839,31.913580246913586,0)" xlink:href="#am"/><use transform="matrix(0.06172839506172839,0,0,0.06172839506172839,43.0246913580247,0)" xlink:href="#ac"/><use transform="matrix(0.06172839506172839,0,0,0.06172839506172839,55.370370370370374,0)" xlink:href="#Q"/><use transform="matrix(0.06172839506172839,0,0,0.06172839506172839,60.24691358024692,0)" xlink:href="#aa"/><use transform="matrix(0.06172839506172839,0,0,0.06172839506172839,72.5925925925926,0)" xlink:href="#Z"/><use transform="matrix(0.06172839506172839,0,0,0.06172839506172839,78.76543209876543,0)" xlink:href="#U"/><use transform="matrix(0.06172839506172839,0,0,0.06172839506172839,83.64197530864197,0)" xlink:href="#O"/><use transform="matrix(0.06172839506172839,0,0,0.06172839506172839,102.09876543209876,0)" xlink:href="#T"/></g><g id="q"><use transform="matrix(0.06172839506172839,0,0,0.06172839506172839,0,0)" xlink:href="#V"/><use transform="matrix(0.06172839506172839,0,0,0.06172839506172839,12.345679012345679,0)" xlink:href="#T"/><use transform="matrix(0.06172839506172839,0,0,0.06172839506172839,24.691358024691358,0)" xlink:href="#Q"/><use transform="matrix(0.06172839506172839,0,0,0.06172839506172839,29.5679012345679,0)" xlink:href="#ac"/><use transform="matrix(0.06172839506172839,0,0,0.06172839506172839,41.913580246913575,0)" xlink:href="#S"/></g><g id="r"><use transform="matrix(0.06172839506172839,0,0,0.06172839506172839,0,0)" xlink:href="#ae"/><use transform="matrix(0.06172839506172839,0,0,0.06172839506172839,11.11111111111111,0)" xlink:href="#ac"/><use transform="matrix(0.06172839506172839,0,0,0.06172839506172839,23.45679012345679,0)" xlink:href="#ab"/><use transform="matrix(0.06172839506172839,0,0,0.06172839506172839,35.80246913580247,0)" xlink:href="#ae"/><use transform="matrix(0.06172839506172839,0,0,0.06172839506172839,46.91358024691358,0)" xlink:href="#T"/><use transform="matrix(0.06172839506172839,0,0,0.06172839506172839,59.25925925925926,0)" xlink:href="#Q"/><use transform="matrix(0.06172839506172839,0,0,0.06172839506172839,64.1358024691358,0)" xlink:href="#Q"/><use transform="matrix(0.06172839506172839,0,0,0.06172839506172839,69.01234567901234,0)" xlink:href="#T"/><use transform="matrix(0.06172839506172839,0,0,0.06172839506172839,81.35802469135803,0)" xlink:href="#V"/></g><g id="s"><use transform="matrix(0.06172839506172839,0,0,0.06172839506172839,0,0)" xlink:href="#V"/><use transform="matrix(0.06172839506172839,0,0,0.06172839506172839,12.345679012345679,0)" xlink:href="#T"/><use transform="matrix(0.06172839506172839,0,0,0.06172839506172839,24.691358024691358,0)" xlink:href="#P"/><use transform="matrix(0.06172839506172839,0,0,0.06172839506172839,37.03703703703704,0)" xlink:href="#ac"/><use transform="matrix(0.06172839506172839,0,0,0.06172839506172839,49.382716049382715,0)" xlink:href="#X"/><use transform="matrix(0.06172839506172839,0,0,0.06172839506172839,56.72839506172839,0)" xlink:href="#Z"/><use transform="matrix(0.06172839506172839,0,0,0.06172839506172839,62.901234567901234,0)" xlink:href="#Y"/><use transform="matrix(0.06172839506172839,0,0,0.06172839506172839,74.01234567901234,0)" xlink:href="#aa"/><use transform="matrix(0.06172839506172839,0,0,0.06172839506172839,86.35802469135803,0)" xlink:href="#W"/><use transform="matrix(0.06172839506172839,0,0,0.06172839506172839,92.53086419753086,0)" xlink:href="#X"/><use transform="matrix(0.06172839506172839,0,0,0.06172839506172839,99.87654320987654,0)" xlink:href="#R"/><use transform="matrix(0.06172839506172839,0,0,0.06172839506172839,112.22222222222223,0)" xlink:href="#O"/></g><g id="t"><use transform="matrix(0.06172839506172839,0,0,0.06172839506172839,0,0)" xlink:href="#ac"/><use transform="matrix(0.06172839506172839,0,0,0.06172839506172839,12.345679012345679,0)" xlink:href="#X"/><use transform="matrix(0.06172839506172839,0,0,0.06172839506172839,19.691358024691358,0)" xlink:href="#X"/><use transform="matrix(0.06172839506172839,0,0,0.06172839506172839,27.037037037037038,0)" xlink:href="#U"/><use transform="matrix(0.06172839506172839,0,0,0.06172839506172839,31.913580246913586,0)" xlink:href="#am"/><use transform="matrix(0.06172839506172839,0,0,0.06172839506172839,43.0246913580247,0)" xlink:href="#T"/><use transform="matrix(0.06172839506172839,0,0,0.06172839506172839,55.370370370370374,0)" xlink:href="#Y"/><use transform="matrix(0.06172839506172839,0,0,0.06172839506172839,66.48148148148148,0)" xlink:href="#aa"/><use transform="matrix(0.06172839506172839,0,0,0.06172839506172839,78.82716049382717,0)" xlink:href="#ac"/><use transform="matrix(0.06172839506172839,0,0,0.06172839506172839,91.17283950617285,0)" xlink:href="#Z"/></g><g id="u"><use transform="matrix(0.06172839506172839,0,0,0.06172839506172839,0,0)" xlink:href="#ad"/><use transform="matrix(0.06172839506172839,0,0,0.06172839506172839,14.814814814814813,0)" xlink:href="#U"/><use transform="matrix(0.06172839506172839,0,0,0.06172839506172839,19.691358024691354,0)" xlink:href="#X"/><use transform="matrix(0.06172839506172839,0,0,0.06172839506172839,27.03703703703703,0)" xlink:href="#ae"/><use transform="matrix(0.06172839506172839,0,0,0.06172839506172839,38.14814814814814,0)" xlink:href="#X"/><use transform="matrix(0.06172839506172839,0,0,0.06172839506172839,45.493827160493815,0)" xlink:href="#ac"/><use transform="matrix(0.06172839506172839,0,0,0.06172839506172839,57.83950617283949,0)" xlink:href="#W"/><use transform="matrix(0.06172839506172839,0,0,0.06172839506172839,64.01234567901233,0)" xlink:href="#Z"/></g><g id="v"><use transform="matrix(0.06172839506172839,0,0,0.06172839506172839,0,0)" xlink:href="#X"/><use transform="matrix(0.06172839506172839,0,0,0.06172839506172839,7.345679012345679,0)" xlink:href="#T"/><use transform="matrix(0.06172839506172839,0,0,0.06172839506172839,19.691358024691358,0)" xlink:href="#aj"/><use transform="matrix(0.06172839506172839,0,0,0.06172839506172839,32.03703703703704,0)" xlink:href="#U"/><use transform="matrix(0.06172839506172839,0,0,0.06172839506172839,36.91358024691358,0)" xlink:href="#Y"/><use transform="matrix(0.06172839506172839,0,0,0.06172839506172839,48.0246913580247,0)" xlink:href="#Z"/><use transform="matrix(0.06172839506172839,0,0,0.06172839506172839,54.19753086419754,0)" xlink:href="#X"/><use transform="matrix(0.06172839506172839,0,0,0.06172839506172839,61.543209876543216,0)" xlink:href="#ac"/><use transform="matrix(0.06172839506172839,0,0,0.06172839506172839,73.8888888888889,0)" xlink:href="#Z"/><use transform="matrix(0.06172839506172839,0,0,0.06172839506172839,80.06172839506173,0)" xlink:href="#U"/><use transform="matrix(0.06172839506172839,0,0,0.06172839506172839,84.93827160493828,0)" xlink:href="#R"/><use transform="matrix(0.06172839506172839,0,0,0.06172839506172839,97.28395061728396,0)" xlink:href="#ab"/><path fill="#3a414a" d="M-1.1 1.54h111.84v1.63H-1.1z"/></g><g id="w"><use transform="matrix(0.06172839506172839,0,0,0.06172839506172839,0,0)" xlink:href="#Z"/><use transform="matrix(0.06172839506172839,0,0,0.06172839506172839,6.172839506172839,0)" xlink:href="#S"/><use transform="matrix(0.06172839506172839,0,0,0.06172839506172839,17.28395061728395,0)" xlink:href="#P"/><use transform="matrix(0.06172839506172839,0,0,0.06172839506172839,29.629629629629626,0)" xlink:href="#T"/><use transform="matrix(0.06172839506172839,0,0,0.06172839506172839,41.9753086419753,0)" xlink:href="#aa"/><use transform="matrix(0.06172839506172839,0,0,0.06172839506172839,54.32098765432098,0)" xlink:href="#Y"/><use transform="matrix(0.06172839506172839,0,0,0.06172839506172839,65.43209876543209,0)" xlink:href="#T"/><use transform="matrix(0.06172839506172839,0,0,0.06172839506172839,77.77777777777777,0)" xlink:href="#X"/><use transform="matrix(0.06172839506172839,0,0,0.06172839506172839,85.12345679012346,0)" xlink:href="#U"/><use transform="matrix(0.06172839506172839,0,0,0.06172839506172839,90,0)" xlink:href="#T"/><use transform="matrix(0.06172839506172839,0,0,0.06172839506172839,102.34567901234568,0)" xlink:href="#Y"/></g><g id="x"><use transform="matrix(0.06172839506172839,0,0,0.06172839506172839,0,0)" xlink:href="#P"/><use transform="matrix(0.06172839506172839,0,0,0.06172839506172839,12.345679012345679,0)" xlink:href="#ac"/><use transform="matrix(0.06172839506172839,0,0,0.06172839506172839,24.691358024691358,0)" xlink:href="#Y"/><use transform="matrix(0.06172839506172839,0,0,0.06172839506172839,35.80246913580247,0)" xlink:href="#Y"/><use transform="matrix(0.06172839506172839,0,0,0.06172839506172839,46.91358024691358,0)" xlink:href="#T"/><use transform="matrix(0.06172839506172839,0,0,0.06172839506172839,59.25925925925926,0)" xlink:href="#ab"/><use transform="matrix(0.06172839506172839,0,0,0.06172839506172839,71.60493827160494,0)" xlink:href="#aj"/><use transform="matrix(0.06172839506172839,0,0,0.06172839506172839,83.95061728395062,0)" xlink:href="#T"/><use transform="matrix(0.06172839506172839,0,0,0.06172839506172839,96.2962962962963,0)" xlink:href="#X"/><use transform="matrix(0.06172839506172839,0,0,0.06172839506172839,103.64197530864199,0)" xlink:href="#aa"/><use transform="matrix(0.06172839506172839,0,0,0.06172839506172839,115.98765432098767,0)" xlink:href="#ae"/><use transform="matrix(0.06172839506172839,0,0,0.06172839506172839,127.09876543209879,0)" xlink:href="#ac"/><use transform="matrix(0.06172839506172839,0,0,0.06172839506172839,139.44444444444446,0)" xlink:href="#P"/><use transform="matrix(0.06172839506172839,0,0,0.06172839506172839,151.79012345679013,0)" xlink:href="#ac"/><use transform="matrix(0.06172839506172839,0,0,0.06172839506172839,164.1358024691358,0)" xlink:href="#ae"/><use transform="matrix(0.06172839506172839,0,0,0.06172839506172839,175.2469135802469,0)" xlink:href="#U"/><use transform="matrix(0.06172839506172839,0,0,0.06172839506172839,180.12345679012344,0)" xlink:href="#Z"/><use transform="matrix(0.06172839506172839,0,0,0.06172839506172839,186.29629629629628,0)" xlink:href="#S"/></g><g id="y"><use transform="matrix(0.06172839506172839,0,0,0.06172839506172839,0,0)" xlink:href="#V"/><use transform="matrix(0.06172839506172839,0,0,0.06172839506172839,12.345679012345679,0)" xlink:href="#T"/><use transform="matrix(0.06172839506172839,0,0,0.06172839506172839,24.691358024691358,0)" xlink:href="#P"/><use transform="matrix(0.06172839506172839,0,0,0.06172839506172839,37.03703703703704,0)" xlink:href="#Q"/><use transform="matrix(0.06172839506172839,0,0,0.06172839506172839,41.91358024691358,0)" xlink:href="#R"/><use transform="matrix(0.06172839506172839,0,0,0.06172839506172839,54.25925925925926,0)" xlink:href="#S"/><use transform="matrix(0.06172839506172839,0,0,0.06172839506172839,65.37037037037037,0)" xlink:href="#T"/><use transform="matrix(0.06172839506172839,0,0,0.06172839506172839,77.71604938271605,0)" xlink:href="#V"/><use transform="matrix(0.06172839506172839,0,0,0.06172839506172839,90.06172839506173,0)" xlink:href="#aa"/><use transform="matrix(0.06172839506172839,0,0,0.06172839506172839,102.40740740740742,0)" xlink:href="#R"/><use transform="matrix(0.06172839506172839,0,0,0.06172839506172839,114.7530864197531,0)" xlink:href="#ab"/></g><path fill="#3a414a" d="M160-131c35 5 61 23 61 61C221 17 115-2 30 0v-248c76 3 177-17 177 60 0 33-19 50-47 57zm-97-11c50-1 110 9 110-42 0-47-63-36-110-37v79zm0 115c55-2 124 14 124-45 0-56-70-42-124-44v89" id="an"/><path fill="#3a414a" d="M143 0L79-87 56-68V0H24v-261h32v163l83-92h37l-77 82L181 0h-38" id="ao"/><g id="z"><use transform="matrix(0.06172839506172839,0,0,0.06172839506172839,0,0)" xlink:href="#an"/><use transform="matrix(0.06172839506172839,0,0,0.06172839506172839,14.814814814814813,0)" xlink:href="#R"/><use transform="matrix(0.06172839506172839,0,0,0.06172839506172839,27.160493827160494,0)" xlink:href="#R"/><use transform="matrix(0.06172839506172839,0,0,0.06172839506172839,39.50617283950617,0)" xlink:href="#ao"/><use transform="matrix(0.06172839506172839,0,0,0.06172839506172839,50.61728395061728,0)" xlink:href="#U"/><use transform="matrix(0.06172839506172839,0,0,0.06172839506172839,55.49382716049382,0)" xlink:href="#ab"/><use transform="matrix(0.06172839506172839,0,0,0.06172839506172839,67.8395061728395,0)" xlink:href="#aj"/></g><g id="A"><use transform="matrix(0.06172839506172839,0,0,0.06172839506172839,0,0)" xlink:href="#Z"/><use transform="matrix(0.06172839506172839,0,0,0.06172839506172839,6.172839506172839,0)" xlink:href="#U"/><use transform="matrix(0.06172839506172839,0,0,0.06172839506172839,11.049382716049383,0)" xlink:href="#O"/><use transform="matrix(0.06172839506172839,0,0,0.06172839506172839,29.50617283950617,0)" xlink:href="#T"/></g><g id="B"><use transform="matrix(0.06172839506172839,0,0,0.06172839506172839,0,0)" xlink:href="#af"/><use transform="matrix(0.06172839506172839,0,0,0.06172839506172839,12.345679012345679,0)" xlink:href="#R"/><use transform="matrix(0.06172839506172839,0,0,0.06172839506172839,24.691358024691358,0)" xlink:href="#R"/><use transform="matrix(0.06172839506172839,0,0,0.06172839506172839,37.03703703703704,0)" xlink:href="#ao"/><use transform="matrix(0.06172839506172839,0,0,0.06172839506172839,48.14814814814815,0)" xlink:href="#T"/><use transform="matrix(0.06172839506172839,0,0,0.06172839506172839,60.49382716049383,0)" xlink:href="#V"/><use transform="matrix(0.06172839506172839,0,0,0.06172839506172839,72.8395061728395,0)" xlink:href="#aa"/><use transform="matrix(0.06172839506172839,0,0,0.06172839506172839,85.18518518518519,0)" xlink:href="#R"/><use transform="matrix(0.06172839506172839,0,0,0.06172839506172839,97.53086419753087,0)" xlink:href="#ab"/></g><use transform="matrix(0.04938271604938272,0,0,0.04938271604938272,0,0)" xlink:href="#ag" id="C"/><path fill="#3a414a" d="M30-248c87 1 191-15 191 75 0 78-77 80-158 76V0H30v-248zm33 125c57 0 124 11 124-50 0-59-68-47-124-48v98" id="ap"/><g id="D"><use transform="matrix(0.06172839506172839,0,0,0.06172839506172839,0,0)" xlink:href="#ap"/><use transform="matrix(0.06172839506172839,0,0,0.06172839506172839,14.814814814814813,0)" xlink:href="#ac"/><use transform="matrix(0.06172839506172839,0,0,0.06172839506172839,27.160493827160494,0)" xlink:href="#Y"/><use transform="matrix(0.06172839506172839,0,0,0.06172839506172839,38.27160493827161,0)" xlink:href="#Y"/><use transform="matrix(0.06172839506172839,0,0,0.06172839506172839,49.38271604938272,0)" xlink:href="#T"/><use transform="matrix(0.06172839506172839,0,0,0.06172839506172839,61.7283950617284,0)" xlink:href="#ab"/><use transform="matrix(0.06172839506172839,0,0,0.06172839506172839,74.07407407407408,0)" xlink:href="#aj"/><use transform="matrix(0.06172839506172839,0,0,0.06172839506172839,86.41975308641976,0)" xlink:href="#T"/><use transform="matrix(0.06172839506172839,0,0,0.06172839506172839,98.76543209876544,0)" xlink:href="#X"/></g><g id="E"><use transform="matrix(0.06172839506172839,0,0,0.06172839506172839,0,0)" xlink:href="#Y"/><use transform="matrix(0.06172839506172839,0,0,0.06172839506172839,11.11111111111111,0)" xlink:href="#Z"/><use transform="matrix(0.06172839506172839,0,0,0.06172839506172839,17.28395061728395,0)" xlink:href="#ac"/><use transform="matrix(0.06172839506172839,0,0,0.06172839506172839,29.629629629629626,0)" xlink:href="#Z"/><use transform="matrix(0.06172839506172839,0,0,0.06172839506172839,35.80246913580247,0)" xlink:href="#al"/><use transform="matrix(0.06172839506172839,0,0,0.06172839506172839,48.148148148148145,0)" xlink:href="#Y"/></g><g id="F"><use transform="matrix(0.06172839506172839,0,0,0.06172839506172839,0,0)" xlink:href="#ab"/><use transform="matrix(0.06172839506172839,0,0,0.06172839506172839,12.345679012345679,0)" xlink:href="#R"/><use transform="matrix(0.06172839506172839,0,0,0.06172839506172839,24.691358024691358,0)" xlink:href="#Z"/><use transform="matrix(0.06172839506172839,0,0,0.06172839506172839,30.864197530864196,0)" xlink:href="#T"/><use transform="matrix(0.06172839506172839,0,0,0.06172839506172839,43.20987654320987,0)" xlink:href="#Y"/></g><g id="G"><use transform="matrix(0.06172839506172839,0,0,0.06172839506172839,0,0)" xlink:href="#af"/><use transform="matrix(0.06172839506172839,0,0,0.06172839506172839,12.345679012345679,0)" xlink:href="#T"/><use transform="matrix(0.06172839506172839,0,0,0.06172839506172839,24.691358024691358,0)" xlink:href="#Q"/><use transform="matrix(0.06172839506172839,0,0,0.06172839506172839,29.5679012345679,0)" xlink:href="#R"/><use transform="matrix(0.06172839506172839,0,0,0.06172839506172839,41.913580246913575,0)" xlink:href="#ab"/><use transform="matrix(0.06172839506172839,0,0,0.06172839506172839,54.25925925925925,0)" xlink:href="#aj"/><use transform="matrix(0.06172839506172839,0,0,0.06172839506172839,66.60493827160494,0)" xlink:href="#Y"/><use transform="matrix(0.06172839506172839,0,0,0.06172839506172839,77.71604938271605,0)" xlink:href="#aa"/><use transform="matrix(0.06172839506172839,0,0,0.06172839506172839,90.06172839506173,0)" xlink:href="#Z"/><use transform="matrix(0.06172839506172839,0,0,0.06172839506172839,96.23456790123457,0)" xlink:href="#R"/></g><g id="H"><use transform="matrix(0.06172839506172839,0,0,0.06172839506172839,0,0)" xlink:href="#ac"/><use transform="matrix(0.06172839506172839,0,0,0.06172839506172839,12.345679012345679,0)" xlink:href="#Y"/><use transform="matrix(0.06172839506172839,0,0,0.06172839506172839,23.45679012345679,0)" xlink:href="#Y"/><use transform="matrix(0.06172839506172839,0,0,0.06172839506172839,34.5679012345679,0)" xlink:href="#U"/><use transform="matrix(0.06172839506172839,0,0,0.06172839506172839,39.44444444444444,0)" xlink:href="#aj"/><use transform="matrix(0.06172839506172839,0,0,0.06172839506172839,51.79012345679012,0)" xlink:href="#ab"/><use transform="matrix(0.06172839506172839,0,0,0.06172839506172839,64.1358024691358,0)" xlink:href="#T"/><use transform="matrix(0.06172839506172839,0,0,0.06172839506172839,76.48148148148148,0)" xlink:href="#V"/><use transform="matrix(0.06172839506172839,0,0,0.06172839506172839,88.82716049382717,0)" xlink:href="#aa"/><use transform="matrix(0.06172839506172839,0,0,0.06172839506172839,101.17283950617285,0)" xlink:href="#Z"/><use transform="matrix(0.06172839506172839,0,0,0.06172839506172839,107.34567901234568,0)" xlink:href="#R"/></g><path fill="#333" d="M230 0l2-204L168 0h-37L68-204 70 0H24v-248h70l56 185 57-185h69V0h-46" id="aq"/><use transform="matrix(0.04938271604938272,0,0,0.04938271604938272,0,0)" xlink:href="#aq" id="I"/><path fill="#3a414a" d="M233-177c-1 41-23 64-60 70L243 0h-38l-65-103H63V0H30v-248c88 3 205-21 203 71zM63-129c60-2 137 13 137-47 0-61-80-42-137-45v92" id="ar"/><path fill="#3a414a" d="M206 0h-36l-40-164L89 0H53L-1-190h32L70-26l43-164h34l41 164 42-164h31" id="as"/><g id="J"><use transform="matrix(0.06172839506172839,0,0,0.06172839506172839,0,0)" xlink:href="#ar"/><use transform="matrix(0.06172839506172839,0,0,0.06172839506172839,15.987654320987653,0)" xlink:href="#al"/><use transform="matrix(0.06172839506172839,0,0,0.06172839506172839,28.333333333333332,0)" xlink:href="#ab"/><use transform="matrix(0.06172839506172839,0,0,0.06172839506172839,40.67901234567901,0)" xlink:href="#as"/><use transform="matrix(0.06172839506172839,0,0,0.06172839506172839,56.666666666666664,0)" xlink:href="#ac"/><use transform="matrix(0.06172839506172839,0,0,0.06172839506172839,69.01234567901234,0)" xlink:href="#S"/></g><g id="K"><use transform="matrix(0.06172839506172839,0,0,0.06172839506172839,0,0)" xlink:href="#Q"/><use transform="matrix(0.06172839506172839,0,0,0.06172839506172839,4.876543209876543,0)" xlink:href="#T"/><use transform="matrix(0.06172839506172839,0,0,0.06172839506172839,17.22222222222222,0)" xlink:href="#ab"/><use transform="matrix(0.06172839506172839,0,0,0.06172839506172839,29.5679012345679,0)" xlink:href="#aj"/><use transform="matrix(0.06172839506172839,0,0,0.06172839506172839,41.913580246913575,0)" xlink:href="#Z"/><use transform="matrix(0.06172839506172839,0,0,0.06172839506172839,48.08641975308642,0)" xlink:href="#ak"/></g><g id="L"><use transform="matrix(0.06172839506172839,0,0,0.06172839506172839,0,0)" xlink:href="#Y"/><use transform="matrix(0.06172839506172839,0,0,0.06172839506172839,11.11111111111111,0)" xlink:href="#P"/><use transform="matrix(0.06172839506172839,0,0,0.06172839506172839,23.45679012345679,0)" xlink:href="#R"/><use transform="matrix(0.06172839506172839,0,0,0.06172839506172839,35.80246913580247,0)" xlink:href="#al"/><use transform="matrix(0.06172839506172839,0,0,0.06172839506172839,48.148148148148145,0)" xlink:href="#Y"/><use transform="matrix(0.06172839506172839,0,0,0.06172839506172839,59.25925925925925,0)" xlink:href="#T"/></g><use transform="matrix(0.04938271604938272,0,0,0.04938271604938272,0,0)" xlink:href="#ah" id="M"/></defs></g></svg>