<svg xmlns="http://www.w3.org/2000/svg" xmlns:xlink="http://www.w3.org/1999/xlink" xmlns:lucid="lucid" width="1217" height="933"><g transform="translate(-134 -238)" lucid:page-tab-id="FrNGkhlL3SiF"><path d="M192 721.85a6 6 0 0 1 6-6h401.6a6 6 0 0 1 6 6v124a6 6 0 0 1-6 6H198a6 6 0 0 1-6-6z" fill="#fff"/><path d="M192 721.85a6 6 0 0 1 6-6h401.6a6 6 0 0 1 6 6v124a6 6 0 0 1-6 6H198a6 6 0 0 1-6-6zM192 755.85h413.6M236 755.85v96M415.9 755.85v96" stroke="#3a414a" fill="none"/><use xlink:href="#a" transform="matrix(1,0,0,1,202,715.8507231863706) translate(136.175 23.6)"/><use xlink:href="#b" transform="matrix(1,0,0,1,197,758.3507231863706) translate(5 17.1)"/><use xlink:href="#c" transform="matrix(1,0,0,1,241,758.3507231863706) translate(0 17.1)"/><use xlink:href="#d" transform="matrix(1,0,0,1,420.9,758.3507231863706) translate(0 17.1)"/><use xlink:href="#e" transform="matrix(1,0,0,1,420.9,758.3507231863706) translate(79.9 17.1)"/><use xlink:href="#f" transform="matrix(1,0,0,1,241,790.3507231863706) translate(0 17.1)"/><use xlink:href="#d" transform="matrix(1,0,0,1,420.9,790.3507231863706) translate(0 17.1)"/><use xlink:href="#e" transform="matrix(1,0,0,1,420.9,790.3507231863706) translate(79.9 17.1)"/><use xlink:href="#g" transform="matrix(1,0,0,1,241,822.3507231863706) translate(0 17.1)"/><use xlink:href="#h" transform="matrix(1,0,0,1,420.9,822.3507231863706) translate(0 17.1)"/><path d="M183.1 926a6 6 0 0 1 6-6h410.5a6 6 0 0 1 6 6v156a6 6 0 0 1-6 6H189.1a6 6 0 0 1-6-6z" fill="#fff"/><path d="M183.1 926a6 6 0 0 1 6-6h410.5a6 6 0 0 1 6 6v156a6 6 0 0 1-6 6H189.1a6 6 0 0 1-6-6zM183.1 960h422.5M255.05 960v128M382.95 960v128" stroke="#3a414a" fill="none"/><use xlink:href="#i" transform="matrix(1,0,0,1,193.09999999999997,920) translate(136.625 23.6)"/><use xlink:href="#j" transform="matrix(1,0,0,1,260.04999999999995,962.5) translate(0 17.1)"/><use xlink:href="#k" transform="matrix(1,0,0,1,387.94999999999993,962.5) translate(0 17.1)"/><use xlink:href="#l" transform="matrix(1,0,0,1,387.94999999999993,962.5) translate(87.85 17.1)"/><use xlink:href="#m" transform="matrix(1,0,0,1,387.94999999999993,962.5) translate(124.75 17.1)"/><use xlink:href="#n" transform="matrix(1,0,0,1,387.94999999999993,962.5) translate(163.65 17.1)"/><use xlink:href="#o" transform="matrix(1,0,0,1,260.04999999999995,994.5) translate(0 17.1)"/><use xlink:href="#p" transform="matrix(1,0,0,1,387.94999999999993,994.5) translate(0 17.1)"/><use xlink:href="#q" transform="matrix(1,0,0,1,188.09999999999997,1026.5) translate(5.024999999999999 17.1)"/><use xlink:href="#r" transform="matrix(1,0,0,1,260.04999999999995,1026.5) translate(0 17.1)"/><use xlink:href="#d" transform="matrix(1,0,0,1,387.94999999999993,1026.5) translate(0 17.1)"/><use xlink:href="#e" transform="matrix(1,0,0,1,387.94999999999993,1026.5) translate(79.9 17.1)"/><use xlink:href="#q" transform="matrix(1,0,0,1,188.09999999999997,1058.5) translate(5.024999999999999 17.1)"/><use xlink:href="#s" transform="matrix(1,0,0,1,260.04999999999995,1058.5) translate(0 17.1)"/><use xlink:href="#t" transform="matrix(1,0,0,1,387.94999999999993,1058.5) translate(0 17.1)"/><path d="M809.52 286a6 6 0 0 1 6-6h348.6a6 6 0 0 1 6 6v252a6 6 0 0 1-6 6h-348.6a6 6 0 0 1-6-6z" fill="#fff"/><path d="M809.52 286a6 6 0 0 1 6-6h348.6a6 6 0 0 1 6 6v252a6 6 0 0 1-6 6h-348.6a6 6 0 0 1-6-6zM809.52 320h360.6M853.52 320v224M970.42 320v224" stroke="#3a414a" fill="none"/><use xlink:href="#u" transform="matrix(1,0,0,1,819.5250269230753,280) translate(98.15 23.6)"/><use xlink:href="#b" transform="matrix(1,0,0,1,814.5250269230753,322.5) translate(5 17.1)"/><use xlink:href="#v" transform="matrix(1,0,0,1,858.5250269230753,322.5) translate(0 17.1)"/><use xlink:href="#t" transform="matrix(1,0,0,1,975.4250269230753,322.5) translate(0 17.1)"/><use xlink:href="#w" transform="matrix(1,0,0,1,858.5250269230753,354.5) translate(0 17.1)"/><use xlink:href="#d" transform="matrix(1,0,0,1,975.4250269230753,354.5) translate(0 17.1)"/><use xlink:href="#x" transform="matrix(1,0,0,1,975.4250269230753,354.5) translate(79.9 17.1)"/><use xlink:href="#y" transform="matrix(1,0,0,1,858.5250269230753,386.5) translate(0 17.1)"/><use xlink:href="#d" transform="matrix(1,0,0,1,975.4250269230753,386.5) translate(0 17.1)"/><use xlink:href="#x" transform="matrix(1,0,0,1,975.4250269230753,386.5) translate(79.9 17.1)"/><use xlink:href="#z" transform="matrix(1,0,0,1,858.5250269230753,418.5) translate(0 17.1)"/><use xlink:href="#d" transform="matrix(1,0,0,1,975.4250269230753,418.5) translate(0 17.1)"/><use xlink:href="#A" transform="matrix(1,0,0,1,975.4250269230753,418.5) translate(79.9 17.1)"/><use xlink:href="#B" transform="matrix(1,0,0,1,858.5250269230753,450.5) translate(0 17.1)"/><use xlink:href="#d" transform="matrix(1,0,0,1,975.4250269230753,450.5) translate(0 17.1)"/><use xlink:href="#C" transform="matrix(1,0,0,1,975.4250269230753,450.5) translate(79.9 17.1)"/><use xlink:href="#D" transform="matrix(1,0,0,1,814.5250269230753,482.5) translate(5.524999999999999 17.1)"/><use xlink:href="#E" transform="matrix(1,0,0,1,858.5250269230753,482.5) translate(0 17.1)"/><use xlink:href="#d" transform="matrix(1,0,0,1,975.4250269230753,482.5) translate(0 17.1)"/><use xlink:href="#F" transform="matrix(1,0,0,1,975.4250269230753,482.5) translate(79.9 17.1)"/><use xlink:href="#G" transform="matrix(1,0,0,1,814.5250269230753,514.5) translate(5.524999999999999 17.1)"/><use xlink:href="#H" transform="matrix(1,0,0,1,858.5250269230753,514.5) translate(0 17.1)"/><use xlink:href="#I" transform="matrix(1,0,0,1,975.4250269230753,514.5) translate(0 17.1)"/><path d="M809.52 561.9a6 6 0 0 1 6-6h446.36a6 6 0 0 1 6 6v284a6 6 0 0 1-6 6H815.5a6 6 0 0 1-6-6z" fill="#fff"/><path d="M809.52 561.9a6 6 0 0 1 6-6h446.36a6 6 0 0 1 6 6v284a6 6 0 0 1-6 6H815.5a6 6 0 0 1-6-6zM809.52 595.9h458.36M853.52 595.9v256M1045.22 595.9v256" stroke="#3a414a" fill="none"/><use xlink:href="#J" transform="matrix(1,0,0,1,819.5250269230753,555.8854415604036) translate(167.15 23.6)"/><use xlink:href="#b" transform="matrix(1,0,0,1,814.5250269230753,598.3854415604036) translate(5 17.1)"/><use xlink:href="#K" transform="matrix(1,0,0,1,858.5250269230753,598.3854415604036) translate(0 17.1)"/><use xlink:href="#d" transform="matrix(1,0,0,1,1050.2250269230753,598.3854415604036) translate(0 17.1)"/><use xlink:href="#e" transform="matrix(1,0,0,1,1050.2250269230753,598.3854415604036) translate(79.9 17.1)"/><use xlink:href="#L" transform="matrix(1,0,0,1,858.5250269230753,630.3854415604036) translate(0 17.1)"/><use xlink:href="#k" transform="matrix(1,0,0,1,1050.2250269230753,630.3854415604036) translate(0 17.1)"/><use xlink:href="#l" transform="matrix(1,0,0,1,1050.2250269230753,630.3854415604036) translate(87.85 17.1)"/><use xlink:href="#m" transform="matrix(1,0,0,1,1050.2250269230753,630.3854415604036) translate(124.75 17.1)"/><use xlink:href="#n" transform="matrix(1,0,0,1,1050.2250269230753,630.3854415604036) translate(163.65 17.1)"/><use xlink:href="#M" transform="matrix(1,0,0,1,858.5250269230753,662.3854415604036) translate(0 17.1)"/><use xlink:href="#k" transform="matrix(1,0,0,1,1050.2250269230753,662.3854415604036) translate(0 17.1)"/><use xlink:href="#l" transform="matrix(1,0,0,1,1050.2250269230753,662.3854415604036) translate(87.85 17.1)"/><use xlink:href="#m" transform="matrix(1,0,0,1,1050.2250269230753,662.3854415604036) translate(124.75 17.1)"/><use xlink:href="#n" transform="matrix(1,0,0,1,1050.2250269230753,662.3854415604036) translate(163.65 17.1)"/><use xlink:href="#N" transform="matrix(1,0,0,1,858.5250269230753,694.3854415604036) translate(0 17.1)"/><use xlink:href="#h" transform="matrix(1,0,0,1,1050.2250269230753,694.3854415604036) translate(0 17.1)"/><use xlink:href="#o" transform="matrix(1,0,0,1,858.5250269230753,726.3854415604036) translate(0 17.1)"/><use xlink:href="#p" transform="matrix(1,0,0,1,1050.2250269230753,726.3854415604036) translate(0 17.1)"/><use xlink:href="#D" transform="matrix(1,0,0,1,814.5250269230753,758.3854415604036) translate(5.524999999999999 17.1)"/><use xlink:href="#O" transform="matrix(1,0,0,1,858.5250269230753,758.3854415604036) translate(0 17.1)"/><use xlink:href="#d" transform="matrix(1,0,0,1,1050.2250269230753,758.3854415604036) translate(0 17.1)"/><use xlink:href="#e" transform="matrix(1,0,0,1,1050.2250269230753,758.3854415604036) translate(79.9 17.1)"/><use xlink:href="#D" transform="matrix(1,0,0,1,814.5250269230753,790.3854415604036) translate(5.524999999999999 17.1)"/><use xlink:href="#P" transform="matrix(1,0,0,1,858.5250269230753,790.3854415604036) translate(0 17.1)"/><use xlink:href="#d" transform="matrix(1,0,0,1,1050.2250269230753,790.3854415604036) translate(0 17.1)"/><use xlink:href="#F" transform="matrix(1,0,0,1,1050.2250269230753,790.3854415604036) translate(79.9 17.1)"/><use xlink:href="#D" transform="matrix(1,0,0,1,814.5250269230753,822.3854415604036) translate(5.524999999999999 17.1)"/><use xlink:href="#Q" transform="matrix(1,0,0,1,858.5250269230753,822.3854415604036) translate(0 17.1)"/><use xlink:href="#d" transform="matrix(1,0,0,1,1050.2250269230753,822.3854415604036) translate(0 17.1)"/><use xlink:href="#F" transform="matrix(1,0,0,1,1050.2250269230753,822.3854415604036) translate(79.9 17.1)"/><path d="M1288.38 611.68h14a6 6 0 0 1 6 6v266.36a6 6 0 0 1-6 6H676a6 6 0 0 0-6 6V1034a6 6 0 0 1-6 6h-18.4" stroke="#3a414a" fill="none"/><path d="M1278.38 621.68v-20M1268.38 611.68h20M1288.38 621.68v-20" stroke="#3a414a" fill="#fff"/><path d="M606.32 1030l20 10-20 10" stroke="#3a414a" fill="#fff" fill-opacity="0"/><path d="M606.32 1040h20M646.32 1040c0 5.52-4.47 10-10 10-5.52 0-10-4.48-10-10s4.48-10 10-10c5.53 0 10 4.48 10 10" stroke="#3a414a" fill="#fff"/><path d="M626.1 771.82h81.36a.1.1 0 0 1 .1.1.1.1 0 0 0 .1.1h61.87" stroke="#3a414a" fill="none"/><path d="M616.1 781.82v-20M606.1 771.82h20M626.1 781.82v-20" stroke="#3a414a" fill="#fff"/><path d="M808.8 782.03l-20-10 20-10" stroke="#3a414a" fill="#fff" fill-opacity="0"/><path d="M808.8 772.03h-20M788.8 772.03c0 5.53-4.48 10-10 10s-10-4.47-10-10c0-5.52 4.48-10 10-10s10 4.48 10 10" stroke="#3a414a" fill="#fff"/><path d="M740 926a6 6 0 0 1 6-6h335.55a6 6 0 0 1 6 6v188a6 6 0 0 1-6 6H746a6 6 0 0 1-6-6z" fill="#fff"/><path d="M740 926a6 6 0 0 1 6-6h335.55a6 6 0 0 1 6 6v188a6 6 0 0 1-6 6H746a6 6 0 0 1-6-6zM740 960h347.55M784 960v160M887.85 960v160" stroke="#3a414a" fill="none"/><use xlink:href="#R" transform="matrix(1,0,0,1,750,920) translate(88.625 23.6)"/><use xlink:href="#b" transform="matrix(1,0,0,1,745,962.5) translate(5 17.1)"/><use xlink:href="#v" transform="matrix(1,0,0,1,789,962.5) translate(0 17.1)"/><use xlink:href="#t" transform="matrix(1,0,0,1,892.85,962.5) translate(0 17.1)"/><use xlink:href="#w" transform="matrix(1,0,0,1,789,994.5) translate(0 17.1)"/><use xlink:href="#d" transform="matrix(1,0,0,1,892.85,994.5) translate(0 17.1)"/><use xlink:href="#x" transform="matrix(1,0,0,1,892.85,994.5) translate(79.9 17.1)"/><use xlink:href="#y" transform="matrix(1,0,0,1,789,1026.5) translate(0 17.1)"/><use xlink:href="#d" transform="matrix(1,0,0,1,892.85,1026.5) translate(0 17.1)"/><use xlink:href="#x" transform="matrix(1,0,0,1,892.85,1026.5) translate(79.9 17.1)"/><use xlink:href="#S" transform="matrix(1,0,0,1,789,1058.5) translate(0 17.1)"/><use xlink:href="#d" transform="matrix(1,0,0,1,892.85,1058.5) translate(0 17.1)"/><use xlink:href="#T" transform="matrix(1,0,0,1,892.85,1058.5) translate(79.9 17.1)"/><use xlink:href="#U" transform="matrix(1,0,0,1,789,1090.5) translate(0 17.1)"/><use xlink:href="#V" transform="matrix(1,0,0,1,892.85,1090.5) translate(0 17.1)"/><path d="M719.5 975.87H706a6 6 0 0 0-6 6V1066a6 6 0 0 1-6 6h-48.4" stroke="#3a414a" fill="none"/><path d="M729.5 965.87v20M739.5 975.87h-20M719.5 965.87v20" stroke="#3a414a" fill="#fff"/><path d="M606.32 1062l20 10-20 10" stroke="#3a414a" fill="#fff" fill-opacity="0"/><path d="M606.32 1072h20M646.32 1072c0 5.52-4.47 10-10 10-5.52 0-10-4.48-10-10s4.48-10 10-10c5.53 0 10 4.48 10 10" stroke="#3a414a" fill="#fff"/><path d="M260 366.3a6 6 0 0 1 6-6h333.6a6 6 0 0 1 6 6v92a6 6 0 0 1-6 6H266a6 6 0 0 1-6-6z" fill="#fff"/><path d="M260 366.3a6 6 0 0 1 6-6h333.6a6 6 0 0 1 6 6v92a6 6 0 0 1-6 6H266a6 6 0 0 1-6-6zM260 400.3h345.6M304 400.3v64M405.9 400.3v64" stroke="#3a414a" fill="none"/><use xlink:href="#W" transform="matrix(1,0,0,1,270,360.311980649183) translate(102.65 23.6)"/><use xlink:href="#b" transform="matrix(1,0,0,1,265,402.811980649183) translate(5 17.1)"/><use xlink:href="#X" transform="matrix(1,0,0,1,309,402.811980649183) translate(0 17.1)"/><use xlink:href="#d" transform="matrix(1,0,0,1,410.9,402.811980649183) translate(0 17.1)"/><use xlink:href="#F" transform="matrix(1,0,0,1,410.9,402.811980649183) translate(79.9 17.1)"/><use xlink:href="#Y" transform="matrix(1,0,0,1,309,434.811980649183) translate(0 17.1)"/><use xlink:href="#d" transform="matrix(1,0,0,1,410.9,434.811980649183) translate(0 17.1)"/><use xlink:href="#x" transform="matrix(1,0,0,1,410.9,434.811980649183) translate(79.9 17.1)"/><path d="M626.1 416.3H734a6 6 0 0 1 6 6V490a6 6 0 0 0 6 6h43.6" stroke="#3a414a" fill="none"/><path d="M626.1 426.3v-20M606.1 416.3h20" stroke="#3a414a" fill="#fff"/><path d="M808.8 506l-20-10 20-10" stroke="#3a414a" fill="#fff" fill-opacity="0"/><path d="M808.8 496h-20" stroke="#3a414a" fill="#fff"/><path d="M626.1 416.3h75.46a6 6 0 0 1 6 6v375.8a6 6 0 0 0 6 6h55.97" stroke="#3a414a" fill="none"/><path d="M626.1 426.3v-20M606.1 416.3h20" stroke="#3a414a" fill="#fff"/><path d="M808.8 814.1l-20-10 20-10" stroke="#3a414a" fill="#fff" fill-opacity="0"/><path d="M808.8 804.1h-20M788.8 804.1c0 5.53-4.48 10-10 10s-10-4.47-10-10c0-5.52 4.48-10 10-10s10 4.48 10 10" stroke="#3a414a" fill="#fff"/><path d="M626.1 416.3H674a6 6 0 0 1 6 6v407.87a6 6 0 0 0 6 6h83.52" stroke="#3a414a" fill="none"/><path d="M626.1 426.3v-20M606.1 416.3h20" stroke="#3a414a" fill="#fff"/><path d="M808.8 846.17l-20-10 20-10" stroke="#3a414a" fill="#fff" fill-opacity="0"/><path d="M808.8 836.17h-20M788.8 836.17c0 5.53-4.48 10-10 10s-10-4.47-10-10c0-5.52 4.48-10 10-10s10 4.48 10 10" stroke="#3a414a" fill="#fff"/><path d="M789.02 336h-14a6 6 0 0 0-6 6v269.18a.5.5 0 0 0 .5.5" stroke="#3a414a" fill="none"/><path d="M808.8 346l-20-10 20-10" stroke="#3a414a" fill="#fff" fill-opacity="0"/><path d="M808.8 336h-20M788.8 326v20" stroke="#3a414a" fill="#fff"/><path d="M808.8 621.68l-20-10 20-10" stroke="#3a414a" fill="#fff" fill-opacity="0"/><path d="M808.8 611.68h-20M788.8 611.68c0 5.53-4.48 10-10 10s-10-4.47-10-10c0-5.52 4.48-10 10-10s10 4.48 10 10" stroke="#3a414a" fill="#fff"/><path d="M200 517.7a6 6 0 0 1 6-6h393.6a6 6 0 0 1 6 6v124a6 6 0 0 1-6 6H206a6 6 0 0 1-6-6z" fill="#fff"/><path d="M200 517.7a6 6 0 0 1 6-6h393.6a6 6 0 0 1 6 6v124a6 6 0 0 1-6 6H206a6 6 0 0 1-6-6zM200 551.7h405.6M244 551.7v96M405.9 551.7v96" stroke="#3a414a" fill="none"/><g><use xlink:href="#Z" transform="matrix(1,0,0,1,210,511.7014463727412) translate(129.125 23.6)"/></g><g><use xlink:href="#Y" transform="matrix(1,0,0,1,249,554.2014463727412) translate(0 17.1)"/></g><g><use xlink:href="#d" transform="matrix(1,0,0,1,410.9,554.2014463727412) translate(0 17.1)"/><use xlink:href="#F" transform="matrix(1,0,0,1,410.9,554.2014463727412) translate(79.9 17.1)"/></g><g><use xlink:href="#aa" transform="matrix(1,0,0,1,249,586.2014463727412) translate(0 17.1)"/></g><g><use xlink:href="#h" transform="matrix(1,0,0,1,410.9,586.2014463727412) translate(0 17.1)"/></g><g><use xlink:href="#D" transform="matrix(1,0,0,1,205,618.2014463727412) translate(5.524999999999999 17.1)"/></g><g><use xlink:href="#ab" transform="matrix(1,0,0,1,249,618.2014463727412) translate(0 17.1)"/></g><g><use xlink:href="#d" transform="matrix(1,0,0,1,410.9,618.2014463727412) translate(0 17.1)"/><use xlink:href="#F" transform="matrix(1,0,0,1,410.9,618.2014463727412) translate(79.9 17.1)"/></g><path d="M625.5 631.83H644a6 6 0 0 0 6-6v-203.5a6 6 0 0 0-6-6h-17.9" stroke="#3a414a" fill="none"/><path d="M606.32 621.83l20 10-20 10" stroke="#3a414a" fill="#fff" fill-opacity="0"/><path d="M606.32 631.83h20M626.1 426.32v-20M606.1 416.32h20" stroke="#3a414a" fill="#fff"/><path d="M1210.13 528.32H1224a6 6 0 0 0 6-6V341.8a6 6 0 0 0-6-6h-13.88" stroke="#3a414a" fill="none"/><path d="M1180.63 538.32v-20M1170.63 528.32h20M1210.63 528.32c0 5.52-4.48 10-10 10-5.53 0-10-4.48-10-10s4.47-10 10-10c5.52 0 10 4.48 10 10M1180.63 345.8v-20M1170.63 335.8h20M1210.63 335.8c0 5.5-4.48 10-10 10-5.53 0-10-4.5-10-10 0-5.53 4.47-10 10-10 5.52 0 10 4.47 10 10" stroke="#3a414a" fill="#fff"/><defs><path d="M141-36C126-15 110 5 73 4 37 3 15-17 15-53c-1-64 63-63 125-63 3-35-9-54-41-54-24 1-41 7-42 31l-33-3c5-37 33-52 76-52 45 0 72 20 72 64v82c-1 20 7 32 28 27v20c-31 9-61-2-59-35zM48-53c0 20 12 33 32 33 41-3 63-29 60-74-43 2-92-5-92 41" id="ac"/><path d="M24-231v-30h32v30H24zM24 0v-190h32V0H24" id="ad"/><path d="M114-163C36-179 61-72 57 0H25l-1-190h30c1 12-1 29 2 39 6-27 23-49 58-41v29" id="ae"/><path d="M24 0v-261h32V0H24" id="af"/><path d="M117-194c89-4 53 116 60 194h-32v-121c0-31-8-49-39-48C34-167 62-67 57 0H25l-1-190h30c1 10-1 24 2 32 11-22 29-35 61-36" id="ag"/><path d="M100-194c63 0 86 42 84 106H49c0 40 14 67 53 68 26 1 43-12 49-29l28 8c-11 28-37 45-77 45C44 4 14-33 15-96c1-61 26-98 85-98zm52 81c6-60-76-77-97-28-3 7-6 17-6 28h103" id="ah"/><path d="M141 0L90-78 38 0H4l68-98-65-92h35l48 74 47-74h35l-64 92 68 98h-35" id="ai"/><path d="M-5 72V49h209v23H-5" id="aj"/><path d="M96-169c-40 0-48 33-48 73s9 75 48 75c24 0 41-14 43-38l32 2c-6 37-31 61-74 61-59 0-76-41-82-99-10-93 101-131 147-64 4 7 5 14 7 22l-32 3c-4-21-16-35-41-35" id="ak"/><path d="M101-234c-31-9-42 10-38 44h38v23H63V0H32v-167H5v-23h27c-7-52 17-82 69-68v24" id="al"/><path d="M59-47c-2 24 18 29 38 22v24C64 9 27 4 27-40v-127H5v-23h24l9-43h21v43h35v23H59v120" id="am"/><g id="a"><use transform="matrix(0.05,0,0,0.05,0,0)" xlink:href="#ac"/><use transform="matrix(0.05,0,0,0.05,10,0)" xlink:href="#ad"/><use transform="matrix(0.05,0,0,0.05,13.949999999999998,0)" xlink:href="#ae"/><use transform="matrix(0.05,0,0,0.05,19.9,0)" xlink:href="#af"/><use transform="matrix(0.05,0,0,0.05,23.849999999999998,0)" xlink:href="#ad"/><use transform="matrix(0.05,0,0,0.05,27.799999999999997,0)" xlink:href="#ag"/><use transform="matrix(0.05,0,0,0.05,37.8,0)" xlink:href="#ah"/><use transform="matrix(0.05,0,0,0.05,47.8,0)" xlink:href="#ai"/><use transform="matrix(0.05,0,0,0.05,56.79999999999999,0)" xlink:href="#aj"/><use transform="matrix(0.05,0,0,0.05,66.8,0)" xlink:href="#ac"/><use transform="matrix(0.05,0,0,0.05,76.8,0)" xlink:href="#ad"/><use transform="matrix(0.05,0,0,0.05,80.75,0)" xlink:href="#ae"/><use transform="matrix(0.05,0,0,0.05,86.7,0)" xlink:href="#ak"/><use transform="matrix(0.05,0,0,0.05,95.7,0)" xlink:href="#ae"/><use transform="matrix(0.05,0,0,0.05,101.65,0)" xlink:href="#ac"/><use transform="matrix(0.05,0,0,0.05,111.65,0)" xlink:href="#al"/><use transform="matrix(0.05,0,0,0.05,116.65,0)" xlink:href="#am"/></g><path d="M30-248c87 1 191-15 191 75 0 78-77 80-158 76V0H30v-248zm33 125c57 0 124 11 124-50 0-59-68-47-124-48v98" id="an"/><path d="M194 0L95-120 63-95V0H30v-248h33v124l119-124h40L117-140 236 0h-42" id="ao"/><g id="b"><use transform="matrix(0.05,0,0,0.05,0,0)" xlink:href="#an"/><use transform="matrix(0.05,0,0,0.05,12,0)" xlink:href="#ao"/></g><path d="M177-190C167-65 218 103 67 71c-23-6-38-20-44-43l32-5c15 47 100 32 89-28v-30C133-14 115 1 83 1 29 1 15-40 15-95c0-56 16-97 71-98 29-1 48 16 59 35 1-10 0-23 2-32h30zM94-22c36 0 50-32 50-73 0-42-14-75-50-75-39 0-46 34-46 75s6 73 46 73" id="ap"/><path d="M135-143c-3-34-86-38-87 0 15 53 115 12 119 90S17 21 10-45l28-5c4 36 97 45 98 0-10-56-113-15-118-90-4-57 82-63 122-42 12 7 21 19 24 35" id="aq"/><path d="M100-194c62-1 85 37 85 99 1 63-27 99-86 99S16-35 15-95c0-66 28-99 85-99zM99-20c44 1 53-31 53-75 0-43-8-75-51-75s-53 32-53 75 10 74 51 75" id="ar"/><g id="c"><use transform="matrix(0.05,0,0,0.05,0,0)" xlink:href="#ae"/><use transform="matrix(0.05,0,0,0.05,5.95,0)" xlink:href="#ah"/><use transform="matrix(0.05,0,0,0.05,15.949999999999998,0)" xlink:href="#ap"/><use transform="matrix(0.05,0,0,0.05,25.950000000000003,0)" xlink:href="#ad"/><use transform="matrix(0.05,0,0,0.05,29.899999999999995,0)" xlink:href="#aq"/><use transform="matrix(0.05,0,0,0.05,38.9,0)" xlink:href="#am"/><use transform="matrix(0.05,0,0,0.05,43.9,0)" xlink:href="#ae"/><use transform="matrix(0.05,0,0,0.05,49.85,0)" xlink:href="#ac"/><use transform="matrix(0.05,0,0,0.05,59.85,0)" xlink:href="#am"/><use transform="matrix(0.05,0,0,0.05,64.85,0)" xlink:href="#ad"/><use transform="matrix(0.05,0,0,0.05,68.8,0)" xlink:href="#ar"/><use transform="matrix(0.05,0,0,0.05,78.8,0)" xlink:href="#ag"/></g><path d="M106-169C34-169 62-67 57 0H25v-261h32l-1 103c12-21 28-36 61-36 89 0 53 116 60 194h-32v-121c2-32-8-49-39-48" id="as"/><g id="d"><use transform="matrix(0.05,0,0,0.05,0,0)" xlink:href="#ak"/><use transform="matrix(0.05,0,0,0.05,9,0)" xlink:href="#as"/><use transform="matrix(0.05,0,0,0.05,19,0)" xlink:href="#ac"/><use transform="matrix(0.05,0,0,0.05,29,0)" xlink:href="#ae"/><use transform="matrix(0.05,0,0,0.05,34.95,0)" xlink:href="#ac"/><use transform="matrix(0.05,0,0,0.05,44.95,0)" xlink:href="#ak"/><use transform="matrix(0.05,0,0,0.05,53.95,0)" xlink:href="#am"/><use transform="matrix(0.05,0,0,0.05,58.95,0)" xlink:href="#ah"/><use transform="matrix(0.05,0,0,0.05,68.95,0)" xlink:href="#ae"/></g><path d="M108 0H70L1-190h34L89-25l56-165h34" id="at"/><path d="M179-190L93 31C79 59 56 82 12 73V49c39 6 53-20 64-50L1-190h34L92-34l54-156h33" id="au"/><path d="M87 75C49 33 22-17 22-94c0-76 28-126 65-167h31c-38 41-64 92-64 168S80 34 118 75H87" id="av"/><path d="M27 0v-27h64v-190l-56 39v-29l58-41h29v221h61V0H27" id="aw"/><path d="M101-251c68 0 85 55 85 127S166 4 100 4C33 4 14-52 14-124c0-73 17-127 87-127zm-1 229c47 0 54-49 54-102s-4-102-53-102c-51 0-55 48-55 102 0 53 5 102 54 102" id="ax"/><path d="M33-261c38 41 65 92 65 168S71 34 33 75H2C39 34 66-17 66-93S39-220 2-261h31" id="ay"/><g id="e"><use transform="matrix(0.05,0,0,0.05,0,0)" xlink:href="#at"/><use transform="matrix(0.05,0,0,0.05,9,0)" xlink:href="#ac"/><use transform="matrix(0.05,0,0,0.05,19,0)" xlink:href="#ae"/><use transform="matrix(0.05,0,0,0.05,24.95,0)" xlink:href="#au"/><use transform="matrix(0.05,0,0,0.05,33.95,0)" xlink:href="#ad"/><use transform="matrix(0.05,0,0,0.05,37.900000000000006,0)" xlink:href="#ag"/><use transform="matrix(0.05,0,0,0.05,47.900000000000006,0)" xlink:href="#ap"/><use transform="matrix(0.05,0,0,0.05,57.900000000000006,0)" xlink:href="#av"/><use transform="matrix(0.05,0,0,0.05,63.85,0)" xlink:href="#aw"/><use transform="matrix(0.05,0,0,0.05,73.85000000000001,0)" xlink:href="#ax"/><use transform="matrix(0.05,0,0,0.05,83.85000000000001,0)" xlink:href="#ay"/></g><path d="M115-194c55 1 70 41 70 98S169 2 115 4C84 4 66-9 55-30l1 105H24l-1-265h31l2 30c10-21 28-34 59-34zm-8 174c40 0 45-34 45-75s-6-73-45-74c-42 0-51 32-51 76 0 43 10 73 51 73" id="az"/><g id="f"><use transform="matrix(0.05,0,0,0.05,0,0)" xlink:href="#am"/><use transform="matrix(0.05,0,0,0.05,5,0)" xlink:href="#au"/><use transform="matrix(0.05,0,0,0.05,14,0)" xlink:href="#az"/><use transform="matrix(0.05,0,0,0.05,24,0)" xlink:href="#ah"/><use transform="matrix(0.05,0,0,0.05,34,0)" xlink:href="#aj"/><use transform="matrix(0.05,0,0,0.05,44,0)" xlink:href="#aq"/><use transform="matrix(0.05,0,0,0.05,53,0)" xlink:href="#ah"/><use transform="matrix(0.05,0,0,0.05,63,0)" xlink:href="#ae"/><use transform="matrix(0.05,0,0,0.05,68.95,0)" xlink:href="#ad"/><use transform="matrix(0.05,0,0,0.05,72.9,0)" xlink:href="#ah"/><use transform="matrix(0.05,0,0,0.05,82.9,0)" xlink:href="#aq"/></g><g id="g"><use transform="matrix(0.05,0,0,0.05,0,0)" xlink:href="#az"/><use transform="matrix(0.05,0,0,0.05,10,0)" xlink:href="#ac"/><use transform="matrix(0.05,0,0,0.05,20,0)" xlink:href="#aq"/><use transform="matrix(0.05,0,0,0.05,29,0)" xlink:href="#aq"/><use transform="matrix(0.05,0,0,0.05,38,0)" xlink:href="#ah"/><use transform="matrix(0.05,0,0,0.05,48,0)" xlink:href="#ag"/><use transform="matrix(0.05,0,0,0.05,58,0)" xlink:href="#ap"/><use transform="matrix(0.05,0,0,0.05,68,0)" xlink:href="#ah"/><use transform="matrix(0.05,0,0,0.05,78,0)" xlink:href="#ae"/><use transform="matrix(0.05,0,0,0.05,83.95,0)" xlink:href="#aj"/><use transform="matrix(0.05,0,0,0.05,93.95,0)" xlink:href="#ak"/><use transform="matrix(0.05,0,0,0.05,102.95,0)" xlink:href="#ac"/><use transform="matrix(0.05,0,0,0.05,112.95,0)" xlink:href="#az"/><use transform="matrix(0.05,0,0,0.05,122.95,0)" xlink:href="#ac"/><use transform="matrix(0.05,0,0,0.05,132.95,0)" xlink:href="#ak"/><use transform="matrix(0.05,0,0,0.05,141.95,0)" xlink:href="#ad"/><use transform="matrix(0.05,0,0,0.05,145.89999999999998,0)" xlink:href="#am"/><use transform="matrix(0.05,0,0,0.05,150.89999999999998,0)" xlink:href="#au"/></g><g id="h"><use transform="matrix(0.05,0,0,0.05,0,0)" xlink:href="#ad"/><use transform="matrix(0.05,0,0,0.05,3.95,0)" xlink:href="#ag"/><use transform="matrix(0.05,0,0,0.05,13.949999999999998,0)" xlink:href="#am"/><use transform="matrix(0.05,0,0,0.05,18.95,0)" xlink:href="#ah"/><use transform="matrix(0.05,0,0,0.05,28.950000000000003,0)" xlink:href="#ap"/><use transform="matrix(0.05,0,0,0.05,38.95,0)" xlink:href="#ah"/><use transform="matrix(0.05,0,0,0.05,48.95,0)" xlink:href="#ae"/></g><path d="M115-194c53 0 69 39 70 98 0 66-23 100-70 100C84 3 66-7 56-30L54 0H23l1-261h32v101c10-23 28-34 59-34zm-8 174c40 0 45-34 45-75 0-40-5-75-45-74-42 0-51 32-51 76 0 43 10 73 51 73" id="aA"/><path d="M143 0L79-87 56-68V0H24v-261h32v163l83-92h37l-77 82L181 0h-38" id="aB"/><g id="i"><use transform="matrix(0.05,0,0,0.05,0,0)" xlink:href="#ac"/><use transform="matrix(0.05,0,0,0.05,10,0)" xlink:href="#ad"/><use transform="matrix(0.05,0,0,0.05,13.949999999999998,0)" xlink:href="#ae"/><use transform="matrix(0.05,0,0,0.05,19.9,0)" xlink:href="#af"/><use transform="matrix(0.05,0,0,0.05,23.849999999999998,0)" xlink:href="#ad"/><use transform="matrix(0.05,0,0,0.05,27.799999999999997,0)" xlink:href="#ag"/><use transform="matrix(0.05,0,0,0.05,37.8,0)" xlink:href="#ah"/><use transform="matrix(0.05,0,0,0.05,47.8,0)" xlink:href="#ai"/><use transform="matrix(0.05,0,0,0.05,56.79999999999999,0)" xlink:href="#aj"/><use transform="matrix(0.05,0,0,0.05,66.8,0)" xlink:href="#aA"/><use transform="matrix(0.05,0,0,0.05,76.8,0)" xlink:href="#ar"/><use transform="matrix(0.05,0,0,0.05,86.8,0)" xlink:href="#ar"/><use transform="matrix(0.05,0,0,0.05,96.8,0)" xlink:href="#aB"/><use transform="matrix(0.05,0,0,0.05,105.80000000000001,0)" xlink:href="#ad"/><use transform="matrix(0.05,0,0,0.05,109.75,0)" xlink:href="#ag"/><use transform="matrix(0.05,0,0,0.05,119.75,0)" xlink:href="#ap"/></g><path d="M210-169c-67 3-38 105-44 169h-31v-121c0-29-5-50-35-48C34-165 62-65 56 0H25l-1-190h30c1 10-1 24 2 32 10-44 99-50 107 0 11-21 27-35 58-36 85-2 47 119 55 194h-31v-121c0-29-5-49-35-48" id="aC"/><g id="j"><use transform="matrix(0.05,0,0,0.05,0,0)" xlink:href="#am"/><use transform="matrix(0.05,0,0,0.05,5,0)" xlink:href="#ad"/><use transform="matrix(0.05,0,0,0.05,8.95,0)" xlink:href="#aC"/><use transform="matrix(0.05,0,0,0.05,23.9,0)" xlink:href="#ah"/></g><g id="k"><use transform="matrix(0.05,0,0,0.05,0,0)" xlink:href="#am"/><use transform="matrix(0.05,0,0,0.05,5,0)" xlink:href="#ad"/><use transform="matrix(0.05,0,0,0.05,8.95,0)" xlink:href="#aC"/><use transform="matrix(0.05,0,0,0.05,23.9,0)" xlink:href="#ah"/><use transform="matrix(0.05,0,0,0.05,33.9,0)" xlink:href="#aq"/><use transform="matrix(0.05,0,0,0.05,42.9,0)" xlink:href="#am"/><use transform="matrix(0.05,0,0,0.05,47.9,0)" xlink:href="#ac"/><use transform="matrix(0.05,0,0,0.05,57.900000000000006,0)" xlink:href="#aC"/><use transform="matrix(0.05,0,0,0.05,72.85,0)" xlink:href="#az"/></g><path d="M206 0h-36l-40-164L89 0H53L-1-190h32L70-26l43-164h34l41 164 42-164h31" id="aD"/><g id="l"><use transform="matrix(0.05,0,0,0.05,0,0)" xlink:href="#aD"/><use transform="matrix(0.05,0,0,0.05,12.950000000000001,0)" xlink:href="#ad"/><use transform="matrix(0.05,0,0,0.05,16.900000000000002,0)" xlink:href="#am"/><use transform="matrix(0.05,0,0,0.05,21.900000000000002,0)" xlink:href="#as"/></g><g id="m"><use transform="matrix(0.05,0,0,0.05,0,0)" xlink:href="#am"/><use transform="matrix(0.05,0,0,0.05,5,0)" xlink:href="#ad"/><use transform="matrix(0.05,0,0,0.05,8.95,0)" xlink:href="#aC"/><use transform="matrix(0.05,0,0,0.05,23.9,0)" xlink:href="#ah"/></g><path d="M9 0v-24l116-142H16v-24h144v24L44-24h123V0H9" id="aE"/><g id="n"><use transform="matrix(0.05,0,0,0.05,0,0)" xlink:href="#aE"/><use transform="matrix(0.05,0,0,0.05,9,0)" xlink:href="#ar"/><use transform="matrix(0.05,0,0,0.05,19,0)" xlink:href="#ag"/><use transform="matrix(0.05,0,0,0.05,29,0)" xlink:href="#ah"/></g><path d="M85-194c31 0 48 13 60 33l-1-100h32l1 261h-30c-2-10 0-23-3-31C134-8 116 4 85 4 32 4 16-35 15-94c0-66 23-100 70-100zm9 24c-40 0-46 34-46 75 0 40 6 74 45 74 42 0 51-32 51-76 0-42-9-74-50-73" id="aF"/><g id="o"><use transform="matrix(0.05,0,0,0.05,0,0)" xlink:href="#ak"/><use transform="matrix(0.05,0,0,0.05,9,0)" xlink:href="#ac"/><use transform="matrix(0.05,0,0,0.05,19,0)" xlink:href="#ag"/><use transform="matrix(0.05,0,0,0.05,29,0)" xlink:href="#ak"/><use transform="matrix(0.05,0,0,0.05,38,0)" xlink:href="#ah"/><use transform="matrix(0.05,0,0,0.05,48,0)" xlink:href="#af"/><use transform="matrix(0.05,0,0,0.05,51.95,0)" xlink:href="#af"/><use transform="matrix(0.05,0,0,0.05,55.900000000000006,0)" xlink:href="#ah"/><use transform="matrix(0.05,0,0,0.05,65.9,0)" xlink:href="#aF"/></g><g id="p"><use transform="matrix(0.05,0,0,0.05,0,0)" xlink:href="#aA"/><use transform="matrix(0.05,0,0,0.05,10,0)" xlink:href="#ar"/><use transform="matrix(0.05,0,0,0.05,20,0)" xlink:href="#ar"/><use transform="matrix(0.05,0,0,0.05,30,0)" xlink:href="#af"/><use transform="matrix(0.05,0,0,0.05,33.95,0)" xlink:href="#ah"/><use transform="matrix(0.05,0,0,0.05,43.95,0)" xlink:href="#ac"/><use transform="matrix(0.05,0,0,0.05,53.95,0)" xlink:href="#ag"/></g><path d="M63-220v92h138v28H63V0H30v-248h175v28H63" id="aG"/><path d="M68-38c1 34 0 65-14 84H32c9-13 17-26 17-46H33v-38h35" id="aH"/><path d="M205 0l-28-72H64L36 0H1l101-248h38L239 0h-34zm-38-99l-47-123c-12 45-31 82-46 123h93" id="aI"/><g id="q"><use transform="matrix(0.05,0,0,0.05,0,0)" xlink:href="#aG"/><use transform="matrix(0.05,0,0,0.05,10.950000000000001,0)" xlink:href="#ao"/><use transform="matrix(0.05,0,0,0.05,22.950000000000003,0)" xlink:href="#aH"/><use transform="matrix(0.05,0,0,0.05,27.950000000000003,0)" xlink:href="#aI"/><use transform="matrix(0.05,0,0,0.05,39.95,0)" xlink:href="#ao"/></g><g id="r"><use transform="matrix(0.05,0,0,0.05,0,0)" xlink:href="#al"/><use transform="matrix(0.05,0,0,0.05,5,0)" xlink:href="#af"/><use transform="matrix(0.05,0,0,0.05,8.95,0)" xlink:href="#ad"/><use transform="matrix(0.05,0,0,0.05,12.899999999999999,0)" xlink:href="#ap"/><use transform="matrix(0.05,0,0,0.05,22.9,0)" xlink:href="#as"/><use transform="matrix(0.05,0,0,0.05,32.9,0)" xlink:href="#am"/><use transform="matrix(0.05,0,0,0.05,37.9,0)" xlink:href="#aj"/><use transform="matrix(0.05,0,0,0.05,47.9,0)" xlink:href="#ad"/><use transform="matrix(0.05,0,0,0.05,51.85,0)" xlink:href="#aF"/></g><g id="s"><use transform="matrix(0.05,0,0,0.05,0,0)" xlink:href="#az"/><use transform="matrix(0.05,0,0,0.05,10,0)" xlink:href="#ac"/><use transform="matrix(0.05,0,0,0.05,20,0)" xlink:href="#aq"/><use transform="matrix(0.05,0,0,0.05,29,0)" xlink:href="#aq"/><use transform="matrix(0.05,0,0,0.05,38,0)" xlink:href="#ah"/><use transform="matrix(0.05,0,0,0.05,48,0)" xlink:href="#ag"/><use transform="matrix(0.05,0,0,0.05,58,0)" xlink:href="#ap"/><use transform="matrix(0.05,0,0,0.05,68,0)" xlink:href="#ah"/><use transform="matrix(0.05,0,0,0.05,78,0)" xlink:href="#ae"/><use transform="matrix(0.05,0,0,0.05,83.95,0)" xlink:href="#aj"/><use transform="matrix(0.05,0,0,0.05,93.95,0)" xlink:href="#ad"/><use transform="matrix(0.05,0,0,0.05,97.9,0)" xlink:href="#aF"/></g><g id="t"><use transform="matrix(0.05,0,0,0.05,0,0)" xlink:href="#aA"/><use transform="matrix(0.05,0,0,0.05,10,0)" xlink:href="#ad"/><use transform="matrix(0.05,0,0,0.05,13.949999999999998,0)" xlink:href="#ap"/><use transform="matrix(0.05,0,0,0.05,23.95,0)" xlink:href="#ad"/><use transform="matrix(0.05,0,0,0.05,27.899999999999995,0)" xlink:href="#ag"/><use transform="matrix(0.05,0,0,0.05,37.9,0)" xlink:href="#am"/></g><g id="u"><use transform="matrix(0.05,0,0,0.05,0,0)" xlink:href="#ac"/><use transform="matrix(0.05,0,0,0.05,10,0)" xlink:href="#ad"/><use transform="matrix(0.05,0,0,0.05,13.949999999999998,0)" xlink:href="#ae"/><use transform="matrix(0.05,0,0,0.05,19.9,0)" xlink:href="#af"/><use transform="matrix(0.05,0,0,0.05,23.849999999999998,0)" xlink:href="#ad"/><use transform="matrix(0.05,0,0,0.05,27.799999999999997,0)" xlink:href="#ag"/><use transform="matrix(0.05,0,0,0.05,37.8,0)" xlink:href="#ah"/><use transform="matrix(0.05,0,0,0.05,47.8,0)" xlink:href="#ai"/><use transform="matrix(0.05,0,0,0.05,56.79999999999999,0)" xlink:href="#aj"/><use transform="matrix(0.05,0,0,0.05,66.8,0)" xlink:href="#ah"/><use transform="matrix(0.05,0,0,0.05,76.8,0)" xlink:href="#aC"/><use transform="matrix(0.05,0,0,0.05,91.75,0)" xlink:href="#az"/><use transform="matrix(0.05,0,0,0.05,101.75,0)" xlink:href="#af"/><use transform="matrix(0.05,0,0,0.05,105.7,0)" xlink:href="#ar"/><use transform="matrix(0.05,0,0,0.05,115.7,0)" xlink:href="#au"/><use transform="matrix(0.05,0,0,0.05,124.7,0)" xlink:href="#ah"/><use transform="matrix(0.05,0,0,0.05,134.7,0)" xlink:href="#ah"/></g><g id="v"><use transform="matrix(0.05,0,0,0.05,0,0)" xlink:href="#ad"/><use transform="matrix(0.05,0,0,0.05,3.95,0)" xlink:href="#aF"/></g><g id="w"><use transform="matrix(0.05,0,0,0.05,0,0)" xlink:href="#al"/><use transform="matrix(0.05,0,0,0.05,5,0)" xlink:href="#ad"/><use transform="matrix(0.05,0,0,0.05,8.95,0)" xlink:href="#ae"/><use transform="matrix(0.05,0,0,0.05,14.899999999999999,0)" xlink:href="#aq"/><use transform="matrix(0.05,0,0,0.05,23.9,0)" xlink:href="#am"/><use transform="matrix(0.05,0,0,0.05,28.899999999999995,0)" xlink:href="#aj"/><use transform="matrix(0.05,0,0,0.05,38.9,0)" xlink:href="#ag"/><use transform="matrix(0.05,0,0,0.05,48.9,0)" xlink:href="#ac"/><use transform="matrix(0.05,0,0,0.05,58.900000000000006,0)" xlink:href="#aC"/><use transform="matrix(0.05,0,0,0.05,73.85,0)" xlink:href="#ah"/></g><g id="x"><use transform="matrix(0.05,0,0,0.05,0,0)" xlink:href="#at"/><use transform="matrix(0.05,0,0,0.05,9,0)" xlink:href="#ac"/><use transform="matrix(0.05,0,0,0.05,19,0)" xlink:href="#ae"/><use transform="matrix(0.05,0,0,0.05,24.95,0)" xlink:href="#au"/><use transform="matrix(0.05,0,0,0.05,33.95,0)" xlink:href="#ad"/><use transform="matrix(0.05,0,0,0.05,37.900000000000006,0)" xlink:href="#ag"/><use transform="matrix(0.05,0,0,0.05,47.900000000000006,0)" xlink:href="#ap"/><use transform="matrix(0.05,0,0,0.05,57.900000000000006,0)" xlink:href="#av"/><use transform="matrix(0.05,0,0,0.05,63.85,0)" xlink:href="#aw"/><use transform="matrix(0.05,0,0,0.05,73.85000000000001,0)" xlink:href="#ax"/><use transform="matrix(0.05,0,0,0.05,83.85000000000001,0)" xlink:href="#ax"/><use transform="matrix(0.05,0,0,0.05,93.85000000000001,0)" xlink:href="#ay"/></g><g id="y"><use transform="matrix(0.05,0,0,0.05,0,0)" xlink:href="#af"/><use transform="matrix(0.05,0,0,0.05,3.95,0)" xlink:href="#ac"/><use transform="matrix(0.05,0,0,0.05,13.949999999999998,0)" xlink:href="#aq"/><use transform="matrix(0.05,0,0,0.05,22.95,0)" xlink:href="#am"/><use transform="matrix(0.05,0,0,0.05,27.950000000000003,0)" xlink:href="#aj"/><use transform="matrix(0.05,0,0,0.05,37.95,0)" xlink:href="#ag"/><use transform="matrix(0.05,0,0,0.05,47.95,0)" xlink:href="#ac"/><use transform="matrix(0.05,0,0,0.05,57.95,0)" xlink:href="#aC"/><use transform="matrix(0.05,0,0,0.05,72.9,0)" xlink:href="#ah"/></g><g id="z"><use transform="matrix(0.05,0,0,0.05,0,0)" xlink:href="#ah"/><use transform="matrix(0.05,0,0,0.05,10,0)" xlink:href="#aC"/><use transform="matrix(0.05,0,0,0.05,24.950000000000003,0)" xlink:href="#ac"/><use transform="matrix(0.05,0,0,0.05,34.95,0)" xlink:href="#ad"/><use transform="matrix(0.05,0,0,0.05,38.900000000000006,0)" xlink:href="#af"/></g><path d="M101-251c82-7 93 87 43 132L82-64C71-53 59-42 53-27h129V0H18c2-99 128-94 128-182 0-28-16-43-45-43s-46 15-49 41l-32-3c6-41 34-60 81-64" id="aJ"/><path d="M54-142c48-35 137-8 131 61C196 18 31 33 14-55l32-4c7 23 22 37 52 37 35-1 51-22 54-58 4-55-73-65-99-34H22l8-134h141v27H59" id="aK"/><path d="M155-56V0h-30v-56H8v-25l114-167h33v167h35v25h-35zm-30-156c-27 46-58 90-88 131h88v-131" id="aL"/><g id="A"><use transform="matrix(0.05,0,0,0.05,0,0)" xlink:href="#at"/><use transform="matrix(0.05,0,0,0.05,9,0)" xlink:href="#ac"/><use transform="matrix(0.05,0,0,0.05,19,0)" xlink:href="#ae"/><use transform="matrix(0.05,0,0,0.05,24.95,0)" xlink:href="#au"/><use transform="matrix(0.05,0,0,0.05,33.95,0)" xlink:href="#ad"/><use transform="matrix(0.05,0,0,0.05,37.900000000000006,0)" xlink:href="#ag"/><use transform="matrix(0.05,0,0,0.05,47.900000000000006,0)" xlink:href="#ap"/><use transform="matrix(0.05,0,0,0.05,57.900000000000006,0)" xlink:href="#av"/><use transform="matrix(0.05,0,0,0.05,63.85,0)" xlink:href="#aJ"/><use transform="matrix(0.05,0,0,0.05,73.85000000000001,0)" xlink:href="#aK"/><use transform="matrix(0.05,0,0,0.05,83.85000000000001,0)" xlink:href="#aL"/><use transform="matrix(0.05,0,0,0.05,93.85000000000001,0)" xlink:href="#ay"/></g><g id="B"><use transform="matrix(0.05,0,0,0.05,0,0)" xlink:href="#ae"/><use transform="matrix(0.05,0,0,0.05,5.95,0)" xlink:href="#ar"/><use transform="matrix(0.05,0,0,0.05,15.949999999999998,0)" xlink:href="#af"/><use transform="matrix(0.05,0,0,0.05,19.9,0)" xlink:href="#ah"/></g><g id="C"><use transform="matrix(0.05,0,0,0.05,0,0)" xlink:href="#at"/><use transform="matrix(0.05,0,0,0.05,9,0)" xlink:href="#ac"/><use transform="matrix(0.05,0,0,0.05,19,0)" xlink:href="#ae"/><use transform="matrix(0.05,0,0,0.05,24.95,0)" xlink:href="#au"/><use transform="matrix(0.05,0,0,0.05,33.95,0)" xlink:href="#ad"/><use transform="matrix(0.05,0,0,0.05,37.900000000000006,0)" xlink:href="#ag"/><use transform="matrix(0.05,0,0,0.05,47.900000000000006,0)" xlink:href="#ap"/><use transform="matrix(0.05,0,0,0.05,57.900000000000006,0)" xlink:href="#av"/><use transform="matrix(0.05,0,0,0.05,63.85,0)" xlink:href="#aJ"/><use transform="matrix(0.05,0,0,0.05,73.85000000000001,0)" xlink:href="#ay"/></g><g id="D"><use transform="matrix(0.05,0,0,0.05,0,0)" xlink:href="#aG"/><use transform="matrix(0.05,0,0,0.05,10.950000000000001,0)" xlink:href="#ao"/></g><g id="E"><use transform="matrix(0.05,0,0,0.05,0,0)" xlink:href="#aA"/><use transform="matrix(0.05,0,0,0.05,10,0)" xlink:href="#ac"/><use transform="matrix(0.05,0,0,0.05,20,0)" xlink:href="#aq"/><use transform="matrix(0.05,0,0,0.05,29,0)" xlink:href="#ah"/><use transform="matrix(0.05,0,0,0.05,39,0)" xlink:href="#aF"/><use transform="matrix(0.05,0,0,0.05,49,0)" xlink:href="#aj"/><use transform="matrix(0.05,0,0,0.05,59,0)" xlink:href="#ad"/><use transform="matrix(0.05,0,0,0.05,62.95,0)" xlink:href="#ag"/><use transform="matrix(0.05,0,0,0.05,72.95,0)" xlink:href="#aj"/><use transform="matrix(0.05,0,0,0.05,82.95,0)" xlink:href="#ad"/><use transform="matrix(0.05,0,0,0.05,86.9,0)" xlink:href="#aF"/></g><g id="F"><use transform="matrix(0.05,0,0,0.05,0,0)" xlink:href="#at"/><use transform="matrix(0.05,0,0,0.05,9,0)" xlink:href="#ac"/><use transform="matrix(0.05,0,0,0.05,19,0)" xlink:href="#ae"/><use transform="matrix(0.05,0,0,0.05,24.95,0)" xlink:href="#au"/><use transform="matrix(0.05,0,0,0.05,33.95,0)" xlink:href="#ad"/><use transform="matrix(0.05,0,0,0.05,37.900000000000006,0)" xlink:href="#ag"/><use transform="matrix(0.05,0,0,0.05,47.900000000000006,0)" xlink:href="#ap"/><use transform="matrix(0.05,0,0,0.05,57.900000000000006,0)" xlink:href="#av"/><use transform="matrix(0.05,0,0,0.05,63.85,0)" xlink:href="#aL"/><use transform="matrix(0.05,0,0,0.05,73.85000000000001,0)" xlink:href="#ay"/></g><g id="G"><use transform="matrix(0.05,0,0,0.05,0,0)" xlink:href="#aG"/><use transform="matrix(0.05,0,0,0.05,10.950000000000001,0)" xlink:href="#ao"/></g><path d="M84 4C-5 8 30-112 23-190h32v120c0 31 7 50 39 49 72-2 45-101 50-169h31l1 190h-30c-1-10 1-25-2-33-11 22-28 36-60 37" id="aM"/><g id="H"><use transform="matrix(0.05,0,0,0.05,0,0)" xlink:href="#aq"/><use transform="matrix(0.05,0,0,0.05,9,0)" xlink:href="#az"/><use transform="matrix(0.05,0,0,0.05,19,0)" xlink:href="#ar"/><use transform="matrix(0.05,0,0,0.05,29,0)" xlink:href="#aM"/><use transform="matrix(0.05,0,0,0.05,39,0)" xlink:href="#aq"/><use transform="matrix(0.05,0,0,0.05,48,0)" xlink:href="#ah"/><use transform="matrix(0.05,0,0,0.05,58,0)" xlink:href="#aj"/><use transform="matrix(0.05,0,0,0.05,68,0)" xlink:href="#ad"/><use transform="matrix(0.05,0,0,0.05,71.95,0)" xlink:href="#aF"/></g><g id="I"><use transform="matrix(0.05,0,0,0.05,0,0)" xlink:href="#aA"/><use transform="matrix(0.05,0,0,0.05,10,0)" xlink:href="#ad"/><use transform="matrix(0.05,0,0,0.05,13.949999999999998,0)" xlink:href="#ap"/><use transform="matrix(0.05,0,0,0.05,23.95,0)" xlink:href="#ad"/><use transform="matrix(0.05,0,0,0.05,27.899999999999995,0)" xlink:href="#ag"/><use transform="matrix(0.05,0,0,0.05,37.9,0)" xlink:href="#am"/></g><g id="J"><use transform="matrix(0.05,0,0,0.05,0,0)" xlink:href="#ac"/><use transform="matrix(0.05,0,0,0.05,10,0)" xlink:href="#ad"/><use transform="matrix(0.05,0,0,0.05,13.949999999999998,0)" xlink:href="#ae"/><use transform="matrix(0.05,0,0,0.05,19.9,0)" xlink:href="#af"/><use transform="matrix(0.05,0,0,0.05,23.849999999999998,0)" xlink:href="#ad"/><use transform="matrix(0.05,0,0,0.05,27.799999999999997,0)" xlink:href="#ag"/><use transform="matrix(0.05,0,0,0.05,37.8,0)" xlink:href="#ah"/><use transform="matrix(0.05,0,0,0.05,47.8,0)" xlink:href="#ai"/><use transform="matrix(0.05,0,0,0.05,56.79999999999999,0)" xlink:href="#aj"/><use transform="matrix(0.05,0,0,0.05,66.8,0)" xlink:href="#al"/><use transform="matrix(0.05,0,0,0.05,71.8,0)" xlink:href="#af"/><use transform="matrix(0.05,0,0,0.05,75.75,0)" xlink:href="#ad"/><use transform="matrix(0.05,0,0,0.05,79.7,0)" xlink:href="#ap"/><use transform="matrix(0.05,0,0,0.05,89.7,0)" xlink:href="#as"/><use transform="matrix(0.05,0,0,0.05,99.7,0)" xlink:href="#am"/></g><g id="K"><use transform="matrix(0.05,0,0,0.05,0,0)" xlink:href="#ag"/><use transform="matrix(0.05,0,0,0.05,10,0)" xlink:href="#aM"/><use transform="matrix(0.05,0,0,0.05,20,0)" xlink:href="#aC"/><use transform="matrix(0.05,0,0,0.05,34.95,0)" xlink:href="#aA"/><use transform="matrix(0.05,0,0,0.05,44.95,0)" xlink:href="#ah"/><use transform="matrix(0.05,0,0,0.05,54.95,0)" xlink:href="#ae"/></g><g id="L"><use transform="matrix(0.05,0,0,0.05,0,0)" xlink:href="#aF"/><use transform="matrix(0.05,0,0,0.05,10,0)" xlink:href="#ah"/><use transform="matrix(0.05,0,0,0.05,20,0)" xlink:href="#az"/><use transform="matrix(0.05,0,0,0.05,30,0)" xlink:href="#ac"/><use transform="matrix(0.05,0,0,0.05,40,0)" xlink:href="#ae"/><use transform="matrix(0.05,0,0,0.05,45.95,0)" xlink:href="#am"/><use transform="matrix(0.05,0,0,0.05,50.95,0)" xlink:href="#aM"/><use transform="matrix(0.05,0,0,0.05,60.95,0)" xlink:href="#ae"/><use transform="matrix(0.05,0,0,0.05,66.9,0)" xlink:href="#ah"/><use transform="matrix(0.05,0,0,0.05,76.9,0)" xlink:href="#aj"/><use transform="matrix(0.05,0,0,0.05,86.9,0)" xlink:href="#am"/><use transform="matrix(0.05,0,0,0.05,91.9,0)" xlink:href="#ad"/><use transform="matrix(0.05,0,0,0.05,95.85000000000001,0)" xlink:href="#aC"/><use transform="matrix(0.05,0,0,0.05,110.80000000000001,0)" xlink:href="#ah"/></g><g id="M"><use transform="matrix(0.05,0,0,0.05,0,0)" xlink:href="#ac"/><use transform="matrix(0.05,0,0,0.05,10,0)" xlink:href="#ae"/><use transform="matrix(0.05,0,0,0.05,15.949999999999998,0)" xlink:href="#ae"/><use transform="matrix(0.05,0,0,0.05,21.9,0)" xlink:href="#ad"/><use transform="matrix(0.05,0,0,0.05,25.849999999999994,0)" xlink:href="#at"/><use transform="matrix(0.05,0,0,0.05,34.849999999999994,0)" xlink:href="#ac"/><use transform="matrix(0.05,0,0,0.05,44.849999999999994,0)" xlink:href="#af"/><use transform="matrix(0.05,0,0,0.05,48.8,0)" xlink:href="#aj"/><use transform="matrix(0.05,0,0,0.05,58.79999999999999,0)" xlink:href="#am"/><use transform="matrix(0.05,0,0,0.05,63.79999999999999,0)" xlink:href="#ad"/><use transform="matrix(0.05,0,0,0.05,67.75,0)" xlink:href="#aC"/><use transform="matrix(0.05,0,0,0.05,82.7,0)" xlink:href="#ah"/></g><g id="N"><use transform="matrix(0.05,0,0,0.05,0,0)" xlink:href="#aF"/><use transform="matrix(0.05,0,0,0.05,10,0)" xlink:href="#ah"/><use transform="matrix(0.05,0,0,0.05,20,0)" xlink:href="#af"/><use transform="matrix(0.05,0,0,0.05,23.95,0)" xlink:href="#ac"/><use transform="matrix(0.05,0,0,0.05,33.95,0)" xlink:href="#au"/></g><g id="O"><use transform="matrix(0.05,0,0,0.05,0,0)" xlink:href="#ac"/><use transform="matrix(0.05,0,0,0.05,10,0)" xlink:href="#ad"/><use transform="matrix(0.05,0,0,0.05,13.949999999999998,0)" xlink:href="#ae"/><use transform="matrix(0.05,0,0,0.05,19.9,0)" xlink:href="#ak"/><use transform="matrix(0.05,0,0,0.05,28.899999999999995,0)" xlink:href="#ae"/><use transform="matrix(0.05,0,0,0.05,34.85,0)" xlink:href="#ac"/><use transform="matrix(0.05,0,0,0.05,44.85,0)" xlink:href="#al"/><use transform="matrix(0.05,0,0,0.05,49.85,0)" xlink:href="#am"/><use transform="matrix(0.05,0,0,0.05,54.85,0)" xlink:href="#aj"/><use transform="matrix(0.05,0,0,0.05,64.85,0)" xlink:href="#ad"/><use transform="matrix(0.05,0,0,0.05,68.8,0)" xlink:href="#aF"/></g><g id="P"><use transform="matrix(0.05,0,0,0.05,0,0)" xlink:href="#aF"/><use transform="matrix(0.05,0,0,0.05,10,0)" xlink:href="#ah"/><use transform="matrix(0.05,0,0,0.05,20,0)" xlink:href="#az"/><use transform="matrix(0.05,0,0,0.05,30,0)" xlink:href="#ac"/><use transform="matrix(0.05,0,0,0.05,40,0)" xlink:href="#ae"/><use transform="matrix(0.05,0,0,0.05,45.95,0)" xlink:href="#am"/><use transform="matrix(0.05,0,0,0.05,50.95,0)" xlink:href="#aM"/><use transform="matrix(0.05,0,0,0.05,60.95,0)" xlink:href="#ae"/><use transform="matrix(0.05,0,0,0.05,66.9,0)" xlink:href="#ah"/><use transform="matrix(0.05,0,0,0.05,76.9,0)" xlink:href="#aj"/><use transform="matrix(0.05,0,0,0.05,86.9,0)" xlink:href="#ac"/><use transform="matrix(0.05,0,0,0.05,96.9,0)" xlink:href="#ad"/><use transform="matrix(0.05,0,0,0.05,100.85000000000001,0)" xlink:href="#ae"/><use transform="matrix(0.05,0,0,0.05,106.80000000000001,0)" xlink:href="#az"/><use transform="matrix(0.05,0,0,0.05,116.80000000000001,0)" xlink:href="#ar"/><use transform="matrix(0.05,0,0,0.05,126.80000000000001,0)" xlink:href="#ae"/><use transform="matrix(0.05,0,0,0.05,132.75,0)" xlink:href="#am"/><use transform="matrix(0.05,0,0,0.05,137.75,0)" xlink:href="#aj"/><use transform="matrix(0.05,0,0,0.05,147.75,0)" xlink:href="#ad"/><use transform="matrix(0.05,0,0,0.05,151.7,0)" xlink:href="#aF"/></g><g id="Q"><use transform="matrix(0.05,0,0,0.05,0,0)" xlink:href="#aF"/><use transform="matrix(0.05,0,0,0.05,10,0)" xlink:href="#ah"/><use transform="matrix(0.05,0,0,0.05,20,0)" xlink:href="#aq"/><use transform="matrix(0.05,0,0,0.05,29,0)" xlink:href="#am"/><use transform="matrix(0.05,0,0,0.05,34,0)" xlink:href="#ad"/><use transform="matrix(0.05,0,0,0.05,37.95,0)" xlink:href="#ag"/><use transform="matrix(0.05,0,0,0.05,47.95,0)" xlink:href="#ac"/><use transform="matrix(0.05,0,0,0.05,57.95,0)" xlink:href="#am"/><use transform="matrix(0.05,0,0,0.05,62.95,0)" xlink:href="#ad"/><use transform="matrix(0.05,0,0,0.05,66.9,0)" xlink:href="#ar"/><use transform="matrix(0.05,0,0,0.05,76.9,0)" xlink:href="#ag"/><use transform="matrix(0.05,0,0,0.05,86.9,0)" xlink:href="#aj"/><use transform="matrix(0.05,0,0,0.05,96.9,0)" xlink:href="#ac"/><use transform="matrix(0.05,0,0,0.05,106.9,0)" xlink:href="#ad"/><use transform="matrix(0.05,0,0,0.05,110.85000000000001,0)" xlink:href="#ae"/><use transform="matrix(0.05,0,0,0.05,116.80000000000001,0)" xlink:href="#az"/><use transform="matrix(0.05,0,0,0.05,126.80000000000001,0)" xlink:href="#ar"/><use transform="matrix(0.05,0,0,0.05,136.8,0)" xlink:href="#ae"/><use transform="matrix(0.05,0,0,0.05,142.75,0)" xlink:href="#am"/><use transform="matrix(0.05,0,0,0.05,147.75,0)" xlink:href="#aj"/><use transform="matrix(0.05,0,0,0.05,157.75,0)" xlink:href="#ad"/><use transform="matrix(0.05,0,0,0.05,161.7,0)" xlink:href="#aF"/></g><g id="R"><use transform="matrix(0.05,0,0,0.05,0,0)" xlink:href="#ac"/><use transform="matrix(0.05,0,0,0.05,10,0)" xlink:href="#ad"/><use transform="matrix(0.05,0,0,0.05,13.949999999999998,0)" xlink:href="#ae"/><use transform="matrix(0.05,0,0,0.05,19.9,0)" xlink:href="#af"/><use transform="matrix(0.05,0,0,0.05,23.849999999999998,0)" xlink:href="#ad"/><use transform="matrix(0.05,0,0,0.05,27.799999999999997,0)" xlink:href="#ag"/><use transform="matrix(0.05,0,0,0.05,37.8,0)" xlink:href="#ah"/><use transform="matrix(0.05,0,0,0.05,47.8,0)" xlink:href="#ai"/><use transform="matrix(0.05,0,0,0.05,56.79999999999999,0)" xlink:href="#aj"/><use transform="matrix(0.05,0,0,0.05,66.8,0)" xlink:href="#az"/><use transform="matrix(0.05,0,0,0.05,76.8,0)" xlink:href="#ac"/><use transform="matrix(0.05,0,0,0.05,86.8,0)" xlink:href="#aq"/><use transform="matrix(0.05,0,0,0.05,95.8,0)" xlink:href="#aq"/><use transform="matrix(0.05,0,0,0.05,104.80000000000001,0)" xlink:href="#ah"/><use transform="matrix(0.05,0,0,0.05,114.80000000000001,0)" xlink:href="#ag"/><use transform="matrix(0.05,0,0,0.05,124.80000000000001,0)" xlink:href="#ap"/><use transform="matrix(0.05,0,0,0.05,134.8,0)" xlink:href="#ah"/><use transform="matrix(0.05,0,0,0.05,144.8,0)" xlink:href="#ae"/></g><g id="S"><use transform="matrix(0.05,0,0,0.05,0,0)" xlink:href="#aq"/><use transform="matrix(0.05,0,0,0.05,9,0)" xlink:href="#am"/><use transform="matrix(0.05,0,0,0.05,14,0)" xlink:href="#ac"/><use transform="matrix(0.05,0,0,0.05,24,0)" xlink:href="#am"/><use transform="matrix(0.05,0,0,0.05,29,0)" xlink:href="#aM"/><use transform="matrix(0.05,0,0,0.05,39,0)" xlink:href="#aq"/></g><g id="T"><use transform="matrix(0.05,0,0,0.05,0,0)" xlink:href="#at"/><use transform="matrix(0.05,0,0,0.05,9,0)" xlink:href="#ac"/><use transform="matrix(0.05,0,0,0.05,19,0)" xlink:href="#ae"/><use transform="matrix(0.05,0,0,0.05,24.95,0)" xlink:href="#au"/><use transform="matrix(0.05,0,0,0.05,33.95,0)" xlink:href="#ad"/><use transform="matrix(0.05,0,0,0.05,37.900000000000006,0)" xlink:href="#ag"/><use transform="matrix(0.05,0,0,0.05,47.900000000000006,0)" xlink:href="#ap"/><use transform="matrix(0.05,0,0,0.05,57.900000000000006,0)" xlink:href="#av"/><use transform="matrix(0.05,0,0,0.05,63.85,0)" xlink:href="#aJ"/><use transform="matrix(0.05,0,0,0.05,73.85000000000001,0)" xlink:href="#ax"/><use transform="matrix(0.05,0,0,0.05,83.85000000000001,0)" xlink:href="#ay"/></g><g id="U"><use transform="matrix(0.05,0,0,0.05,0,0)" xlink:href="#ag"/><use transform="matrix(0.05,0,0,0.05,10,0)" xlink:href="#ar"/><use transform="matrix(0.05,0,0,0.05,20,0)" xlink:href="#am"/><use transform="matrix(0.05,0,0,0.05,25,0)" xlink:href="#ah"/><use transform="matrix(0.05,0,0,0.05,35,0)" xlink:href="#aq"/></g><g id="V"><use transform="matrix(0.05,0,0,0.05,0,0)" xlink:href="#am"/><use transform="matrix(0.05,0,0,0.05,5,0)" xlink:href="#ah"/><use transform="matrix(0.05,0,0,0.05,15,0)" xlink:href="#ai"/><use transform="matrix(0.05,0,0,0.05,24,0)" xlink:href="#am"/></g><g id="W"><use transform="matrix(0.05,0,0,0.05,0,0)" xlink:href="#ac"/><use transform="matrix(0.05,0,0,0.05,10,0)" xlink:href="#ad"/><use transform="matrix(0.05,0,0,0.05,13.949999999999998,0)" xlink:href="#ae"/><use transform="matrix(0.05,0,0,0.05,19.9,0)" xlink:href="#az"/><use transform="matrix(0.05,0,0,0.05,29.899999999999995,0)" xlink:href="#ar"/><use transform="matrix(0.05,0,0,0.05,39.9,0)" xlink:href="#ae"/><use transform="matrix(0.05,0,0,0.05,45.85,0)" xlink:href="#am"/><use transform="matrix(0.05,0,0,0.05,50.85,0)" xlink:href="#ai"/><use transform="matrix(0.05,0,0,0.05,59.85,0)" xlink:href="#aj"/><use transform="matrix(0.05,0,0,0.05,69.85,0)" xlink:href="#ac"/><use transform="matrix(0.05,0,0,0.05,79.85,0)" xlink:href="#ad"/><use transform="matrix(0.05,0,0,0.05,83.8,0)" xlink:href="#ae"/><use transform="matrix(0.05,0,0,0.05,89.75,0)" xlink:href="#az"/><use transform="matrix(0.05,0,0,0.05,99.75,0)" xlink:href="#ar"/><use transform="matrix(0.05,0,0,0.05,109.75,0)" xlink:href="#ae"/><use transform="matrix(0.05,0,0,0.05,115.7,0)" xlink:href="#am"/></g><g id="X"><use transform="matrix(0.05,0,0,0.05,0,0)" xlink:href="#ad"/><use transform="matrix(0.05,0,0,0.05,3.95,0)" xlink:href="#ak"/><use transform="matrix(0.05,0,0,0.05,12.949999999999998,0)" xlink:href="#ac"/><use transform="matrix(0.05,0,0,0.05,22.95,0)" xlink:href="#ar"/><use transform="matrix(0.05,0,0,0.05,32.95,0)" xlink:href="#aj"/><use transform="matrix(0.05,0,0,0.05,42.95,0)" xlink:href="#ak"/><use transform="matrix(0.05,0,0,0.05,51.95,0)" xlink:href="#ar"/><use transform="matrix(0.05,0,0,0.05,61.95,0)" xlink:href="#aF"/><use transform="matrix(0.05,0,0,0.05,71.95,0)" xlink:href="#ah"/></g><g id="Y"><use transform="matrix(0.05,0,0,0.05,0,0)" xlink:href="#ag"/><use transform="matrix(0.05,0,0,0.05,10,0)" xlink:href="#ac"/><use transform="matrix(0.05,0,0,0.05,20,0)" xlink:href="#aC"/><use transform="matrix(0.05,0,0,0.05,34.95,0)" xlink:href="#ah"/></g><g id="Z"><use transform="matrix(0.05,0,0,0.05,0,0)" xlink:href="#ac"/><use transform="matrix(0.05,0,0,0.05,10,0)" xlink:href="#ad"/><use transform="matrix(0.05,0,0,0.05,13.949999999999998,0)" xlink:href="#ae"/><use transform="matrix(0.05,0,0,0.05,19.9,0)" xlink:href="#az"/><use transform="matrix(0.05,0,0,0.05,29.899999999999995,0)" xlink:href="#ar"/><use transform="matrix(0.05,0,0,0.05,39.9,0)" xlink:href="#ae"/><use transform="matrix(0.05,0,0,0.05,45.85,0)" xlink:href="#am"/><use transform="matrix(0.05,0,0,0.05,50.85,0)" xlink:href="#ai"/><use transform="matrix(0.05,0,0,0.05,59.85,0)" xlink:href="#aj"/><use transform="matrix(0.05,0,0,0.05,69.85,0)" xlink:href="#ae"/><use transform="matrix(0.05,0,0,0.05,75.8,0)" xlink:href="#aM"/><use transform="matrix(0.05,0,0,0.05,85.8,0)" xlink:href="#ag"/><use transform="matrix(0.05,0,0,0.05,95.8,0)" xlink:href="#aD"/><use transform="matrix(0.05,0,0,0.05,108.75,0)" xlink:href="#ac"/><use transform="matrix(0.05,0,0,0.05,118.75,0)" xlink:href="#au"/></g><g id="aa"><use transform="matrix(0.05,0,0,0.05,0,0)" xlink:href="#af"/><use transform="matrix(0.05,0,0,0.05,3.95,0)" xlink:href="#ah"/><use transform="matrix(0.05,0,0,0.05,13.949999999999998,0)" xlink:href="#ag"/><use transform="matrix(0.05,0,0,0.05,23.95,0)" xlink:href="#ap"/><use transform="matrix(0.05,0,0,0.05,33.95,0)" xlink:href="#am"/><use transform="matrix(0.05,0,0,0.05,38.95,0)" xlink:href="#as"/></g><g id="ab"><use transform="matrix(0.05,0,0,0.05,0,0)" xlink:href="#ac"/><use transform="matrix(0.05,0,0,0.05,10,0)" xlink:href="#ad"/><use transform="matrix(0.05,0,0,0.05,13.949999999999998,0)" xlink:href="#ae"/><use transform="matrix(0.05,0,0,0.05,19.9,0)" xlink:href="#az"/><use transform="matrix(0.05,0,0,0.05,29.899999999999995,0)" xlink:href="#ar"/><use transform="matrix(0.05,0,0,0.05,39.9,0)" xlink:href="#ae"/><use transform="matrix(0.05,0,0,0.05,45.85,0)" xlink:href="#am"/><use transform="matrix(0.05,0,0,0.05,50.85,0)" xlink:href="#aj"/><use transform="matrix(0.05,0,0,0.05,60.85,0)" xlink:href="#ad"/><use transform="matrix(0.05,0,0,0.05,64.8,0)" xlink:href="#ak"/><use transform="matrix(0.05,0,0,0.05,73.8,0)" xlink:href="#ac"/><use transform="matrix(0.05,0,0,0.05,83.8,0)" xlink:href="#ar"/><use transform="matrix(0.05,0,0,0.05,93.8,0)" xlink:href="#aj"/><use transform="matrix(0.05,0,0,0.05,103.80000000000001,0)" xlink:href="#ak"/><use transform="matrix(0.05,0,0,0.05,112.80000000000001,0)" xlink:href="#ar"/><use transform="matrix(0.05,0,0,0.05,122.80000000000001,0)" xlink:href="#aF"/><use transform="matrix(0.05,0,0,0.05,132.8,0)" xlink:href="#ah"/></g></defs></g></svg>